<svg width="20" height="20" viewBox="0 0 20 20" fill="none" xmlns="http://www.w3.org/2000/svg">
<path d="M13.371 5.54747C12.265 3.72323 10.266 2.5 7.97709 2.5C4.49225 2.5 1.66699 5.32525 1.66699 8.81111C1.66699 9.95859 1.9781 11.0323 2.51447 11.9596C2.8882 12.6616 2.46901 14.3202 1.66699 15.1212C2.75487 15.1798 4.18921 14.6889 4.82861 14.2737C5.25386 14.5192 5.92962 14.8455 6.81245 15.0121C6.92558 15.0333 7.04679 15.0293 7.16194 15.0444" stroke="#1B73E8" stroke-width="1.25" stroke-linecap="round" stroke-linejoin="round"/>
<path d="M13.7887 8.05078C16.2988 8.05078 18.3341 10.0861 18.3341 12.5962C18.3341 13.4235 18.1099 14.1962 17.724 14.8649C17.4543 15.37 17.7573 16.5649 18.3341 17.1427C17.5503 17.1851 16.5179 16.8306 16.0563 16.5326C15.7503 16.7094 15.2634 16.9437 14.627 17.0649C14.3553 17.1164 14.0745 17.1437 13.7876 17.1437C11.2765 17.1437 9.24219 15.1084 9.24219 12.5983C9.24219 10.0871 11.2775 8.0528 13.7876 8.0528L13.7887 8.05078Z" stroke="#1B73E8" stroke-width="1.25" stroke-linecap="round" stroke-linejoin="round"/>
</svg>
