<svg width="20" height="20" viewBox="0 0 20 20" fill="none" xmlns="http://www.w3.org/2000/svg">
<path d="M7.15859 6.041C10.3555 2.86763 14.2338 2.04404 15.7858 4.20701C17.3378 6.36997 15.9738 10.7417 12.7769 13.9151C9.58003 17.112 5.70173 17.9344 4.12621 15.7479C2.59885 13.5626 3.96289 9.2132 7.15859 6.041" fill="#F06321"/>
<path d="M9.27466 4.34785C8.92219 4.60633 8.56973 4.9118 8.21726 5.24194C5.41985 8.01468 4.24378 11.8225 5.63133 13.727C7.06469 15.6303 10.4965 14.9254 13.3644 12.128C14.9165 10.6241 15.9504 8.88409 16.3733 7.26275C16.4908 6.06436 16.3264 5.00579 15.7859 4.20687C14.564 2.51503 11.9311 2.65484 9.27466 4.34785" fill="#AE282E"/>
<path d="M13.3172 4.70107V4.77156C13.2937 5.17102 13.0587 5.66447 12.6357 6.08743C12.0013 6.69837 11.1554 6.93335 10.8017 6.58206C10.4023 6.2061 10.6384 5.3825 11.2729 4.72457C11.9308 4.09013 12.7767 3.87865 13.1292 4.25461C13.2467 4.3721 13.3172 4.51309 13.3172 4.70107M10.8734 15.4901C9.36838 16.6179 7.81752 17.1831 6.3125 16.9481C6.94694 16.9716 7.46506 16.2655 7.88801 15.3256C8.31098 14.3622 8.54595 13.4693 8.75743 12.6222C9.0629 11.2828 9.08641 10.3429 8.92192 10.1314C8.66344 9.80126 8.0995 9.87292 7.44038 10.2489C7.11142 10.4369 6.68846 10.3194 7.18308 9.70844C7.70004 9.0975 9.69735 7.63946 10.4023 7.40448C11.2024 7.193 12.0953 7.49848 11.7898 8.36789C11.5772 9.00233 8.80444 16.242 10.8734 15.4901" fill="white"/>
</svg>
