<svg width="24" height="24" viewBox="0 0 24 24" fill="none" xmlns="http://www.w3.org/2000/svg">
<path d="M3.76 8.93945L2.56 10.7995C2.19 11.3695 2 12.0295 2 12.7095V15.9795C2 17.1195 2.74 17.8595 3.8 17.8595" stroke="#141414" stroke-width="1.5" stroke-linecap="round" stroke-linejoin="round"/>
<path d="M20.28 17.8595C21.31 17.8595 22.01 17.0995 22.01 15.9795V13.7695C22.01 13.1995 21.62 12.6995 21.06 12.5595L17 11.5495L15.75 10.0195" stroke="#141414" stroke-width="1.5" stroke-linecap="round" stroke-linejoin="round"/>
<path d="M17.6402 20.0499C18.8502 20.0499 19.8302 19.0699 19.8302 17.8599C19.8302 16.6499 18.8502 15.6699 17.6402 15.6699C16.4302 15.6699 15.4502 16.6499 15.4502 17.8599C15.4502 19.0699 16.4302 20.0499 17.6402 20.0499Z" stroke="#141414" stroke-width="1.5" stroke-linecap="round" stroke-linejoin="round"/>
<path d="M6.01031 20.0499C7.22031 20.0499 8.20031 19.0699 8.20031 17.8599C8.20031 16.6499 7.22031 15.6699 6.01031 15.6699C4.80031 15.6699 3.82031 16.6499 3.82031 17.8599C3.82031 19.0699 4.80031 20.0499 6.01031 20.0499Z" stroke="#141414" stroke-width="1.5" stroke-linecap="round" stroke-linejoin="round"/>
<path d="M12.9102 17.8594H15.2902" stroke="#141414" stroke-width="1.5" stroke-linecap="round" stroke-linejoin="round"/>
<path d="M8.40039 17.8594H9.97039" stroke="#141414" stroke-width="1.5" stroke-linecap="round" stroke-linejoin="round"/>
<path d="M4.88965 3.57C5.78965 2.58 6.84965 2 7.98965 2C11.1796 2 13.7596 6.48 13.7596 12.01C13.7596 17.54 11.1696 22.02 7.98965 22.02C7.52965 22.02 7.07965 21.93 6.63965 21.75" stroke="#141414" stroke-width="1.5" stroke-linecap="round"/>
<path d="M6.1399 5.48953L3.6099 5.59953C3.3599 5.60953 3.1499 5.41953 3.1399 5.16953L3.0299 2.63953C3.0099 2.23953 3.4899 2.00953 3.7899 2.28953L6.4299 4.70953C6.7299 4.97953 6.5499 5.47953 6.1399 5.49953V5.48953Z" fill="#141414"/>
<path d="M10.22 7.71094H5.85C5 7.71094 4.21 8.15094 3.75 8.87094" stroke="#141414" stroke-width="1.5" stroke-linecap="round" stroke-linejoin="round"/>
<path d="M15.7504 9.95945C15.1304 9.17945 14.3304 8.57945 13.4404 8.18945" stroke="#141414" stroke-width="1.5" stroke-linecap="round" stroke-linejoin="round"/>
<path d="M2.7998 12.1895L11.0198 12.3295" stroke="#141414" stroke-width="1.5" stroke-miterlimit="10" stroke-linecap="round"/>
</svg>
