<svg width="24" height="24" viewBox="0 0 24 24" fill="none" xmlns="http://www.w3.org/2000/svg">
<path d="M4 3.00004C4 2.73482 4.10536 2.48047 4.29289 2.29293C4.48043 2.1054 4.73478 2.00004 5 2.00004C5.24762 1.99868 5.49048 2.06806 5.7 2.20004L6.633 2.80004C6.84204 2.93361 7.08493 3.00459 7.333 3.00459C7.58107 3.00459 7.82396 2.93361 8.033 2.80004L8.967 2.20004C9.17604 2.06646 9.41893 1.99548 9.667 1.99548C9.91507 1.99548 10.158 2.06646 10.367 2.20004L11.3 2.80004C11.509 2.93361 11.7519 3.00459 12 3.00459C12.2481 3.00459 12.491 2.93361 12.7 2.80004L13.633 2.20004C13.842 2.06646 14.0849 1.99548 14.333 1.99548C14.5811 1.99548 14.824 2.06646 15.033 2.20004L15.967 2.80004C16.176 2.93361 16.4189 3.00459 16.667 3.00459C16.9151 3.00459 17.158 2.93361 17.367 2.80004L18.3 2.20004C18.5095 2.06806 18.7524 1.99868 19 2.00004C19.2652 2.00004 19.5196 2.1054 19.7071 2.29293C19.8946 2.48047 20 2.73482 20 3.00004V21C20 21.2653 19.8946 21.5196 19.7071 21.7071C19.5196 21.8947 19.2652 22 19 22C18.7524 22.0014 18.5095 21.932 18.3 21.8L17.367 21.2C17.158 21.0665 16.9151 20.9955 16.667 20.9955C16.4189 20.9955 16.176 21.0665 15.967 21.2L15.033 21.8C14.824 21.9336 14.5811 22.0046 14.333 22.0046C14.0849 22.0046 13.842 21.9336 13.633 21.8L12.7 21.2C12.491 21.0665 12.2481 20.9955 12 20.9955C11.7519 20.9955 11.509 21.0665 11.3 21.2L10.367 21.8C10.158 21.9336 9.91507 22.0046 9.667 22.0046C9.41893 22.0046 9.17604 21.9336 8.967 21.8L8.033 21.2C7.82396 21.0665 7.58107 20.9955 7.333 20.9955C7.08493 20.9955 6.84204 21.0665 6.633 21.2L5.7 21.8C5.49048 21.932 5.24762 22.0014 5 22C4.73478 22 4.48043 21.8947 4.29289 21.7071C4.10536 21.5196 4 21.2653 4 21V3.00004Z" stroke="#0F0F10" stroke-width="1.5" stroke-linecap="round" stroke-linejoin="round"/>
<path d="M10.58 8C11.7114 8 12.9714 9.10571 12.8943 10.9957C12.8171 12.8086 11.7371 13.5671 9.42285 13.5671L13.28 17" stroke="#0F0F10" stroke-width="1.5" stroke-linecap="round" stroke-linejoin="round"/>
<path d="M9.42285 10.8414H14.36" stroke="#0F0F10" stroke-width="1.5" stroke-linecap="round" stroke-linejoin="round"/>
<path d="M9.42285 8H14.4371" stroke="#0F0F10" stroke-width="1.5" stroke-linecap="round" stroke-linejoin="round"/>
</svg>
