<svg width="48" height="48" viewBox="0 0 48 48" fill="none" xmlns="http://www.w3.org/2000/svg">
<path d="M22.2962 2.70839C18.6643 5.09635 15.1043 5.85234 13.0884 6.09634C12.1244 6.21634 11.4004 7.02833 11.4004 7.98832V16.7202C11.4004 22.3201 14.8083 27.3441 20.0323 29.444L22.5962 30.476C22.8322 30.568 23.0762 30.612 23.3202 30.612H24.9522L26.6082 29.404C31.8281 27.2481 35.2401 22.1841 35.2401 16.5842V7.85632C35.2401 6.89233 34.5201 6.08834 33.5521 5.98034C31.5401 5.76035 28.6202 4.74836 24.9882 2.40039H23.3242C22.9682 2.40039 22.6122 2.50039 22.3002 2.70839H22.2922H22.2962Z" fill="url(#paint0_linear_1890_8039)"/>
<path d="M23.9282 2.7089C20.2962 5.09687 16.7363 5.85286 14.7163 6.09686C13.7523 6.21686 13.0283 7.02885 13.0283 7.98883V16.7207C13.0283 22.3206 16.4363 27.3446 21.6602 29.4445L24.2242 30.4765C24.6882 30.6645 25.2122 30.6645 25.6802 30.4645L28.2441 29.4085C33.464 27.2526 36.876 22.1886 36.876 16.5887V7.85683C36.876 6.89285 36.156 6.08886 35.188 5.98086C33.1681 5.76086 29.6121 5.03687 25.9761 2.6929C25.3562 2.30091 24.5522 2.30091 23.9242 2.7049H23.9322L23.9282 2.7089Z" fill="url(#paint1_linear_1890_8039)"/>
<path d="M24.0716 4.66399C20.9516 6.71196 17.8957 7.36395 16.1637 7.57195C15.3397 7.67195 14.7197 8.37194 14.7197 9.19593V16.6878C14.7197 21.4958 17.6437 25.8117 22.1276 27.6077L24.3276 28.4877C24.7276 28.6517 25.1756 28.6437 25.5756 28.4877L27.7756 27.5797C32.2555 25.7317 35.1835 21.3798 35.1835 16.5718V9.07993C35.1835 8.25594 34.5635 7.55995 33.7395 7.47195C32.0075 7.27995 28.9515 6.66396 25.8316 4.65199C25.2996 4.30799 24.6076 4.31599 24.0756 4.66399L24.0676 4.65599L24.0716 4.66399Z" fill="url(#paint2_linear_1890_8039)"/>
<path d="M28.9439 10.584L20.9561 10.596V12.38L23.672 12.376C24.616 12.376 25.428 12.948 25.78 13.7599L20.9601 13.7679V15.5519L25.784 15.5439C25.436 16.3599 24.624 16.9359 23.68 16.9359H21.564L20.9561 18.4799L26.308 23.4958L27.528 22.1958L23.812 18.7119C25.692 18.6479 27.248 17.3079 27.644 15.5359H28.9479V13.7519H27.644C27.528 13.2519 27.324 12.78 27.04 12.368H28.9479V10.584H28.9439Z" fill="url(#paint3_linear_1890_8039)"/>
<path d="M16.1915 33.4079L23.4594 33.3079L28.6593 32.3C29.2473 32.22 29.8033 32.588 29.9513 33.1639C30.0953 33.6999 29.7873 34.1879 29.3393 34.5119C28.7633 34.9319 27.8193 35.2559 27.8193 35.2559L16.1875 33.4079H16.1915Z" fill="url(#paint4_linear_1890_8039)"/>
<path d="M16.1916 33.408C16.1916 33.408 18.7796 33.272 22.2715 34.028C25.7635 34.7839 28.7714 35.5919 31.6834 35.6599L25.8075 37.3159L16.1836 33.408H16.1916Z" fill="url(#paint5_linear_1890_8039)"/>
<path d="M31.2559 39.4114L37.6118 38.4194L43.6117 35.3195L43.5077 35.0755C43.1197 34.1955 42.0637 33.8315 41.2117 34.2755L37.1238 36.4274L31.2559 39.4074V39.4154V39.4114Z" fill="url(#paint6_linear_1890_8039)"/>
<path d="M31.2559 39.4118L37.5198 37.8118L45.1557 31.4879L44.7077 31.0319C44.0517 30.3679 42.9997 30.3079 42.2757 30.8999L38.9078 33.6439L31.2639 39.4198L31.2559 39.4118Z" fill="url(#paint7_linear_1890_8039)"/>
<path d="M28.3321 40.3646L35.7 37.9767C36.02 37.8687 36.292 37.6647 36.48 37.3847L41.7479 29.5288L41.236 29.2488C40.356 28.7608 39.244 29.0488 38.712 29.9048L37.776 31.3968L28.3281 40.3646H28.3361H28.3321Z" fill="url(#paint8_linear_1890_8039)"/>
<path d="M10.2238 45.0073L13.1238 42.2834C14.9478 40.5714 17.4357 39.7394 19.9237 40.0274L26.1876 40.7474C26.9236 40.8354 27.6756 40.7034 28.3396 40.3714L34.1515 37.4954C34.3595 37.3954 34.5315 37.2394 34.6595 37.0474L38.3395 31.3715L37.5155 31.1035C36.8155 30.8715 36.0515 31.0795 35.5595 31.6235L32.1395 35.4315C32.0275 35.5635 31.8635 35.6435 31.6955 35.6635L27.5036 36.1394C27.0156 36.1954 26.5276 36.1474 26.0596 35.9954L19.3837 33.8515C16.6917 32.9875 13.7518 33.3875 11.3918 34.9515L3.71191 40.0114" fill="url(#paint9_linear_1890_8039)"/>
<path d="M9.59191 45.5994L13.1159 42.2795C14.9398 40.5675 17.4278 39.7355 19.9158 40.0235L26.1797 40.7435C26.9157 40.8315 27.6677 40.6995 28.3317 40.3675L34.1436 37.4915C34.3516 37.3915 34.5236 37.2355 34.6516 37.0435L38.3315 31.3676L37.5075 31.0996C36.8075 30.8676 36.0436 31.0756 35.5516 31.6196L32.1316 35.4275C32.0196 35.5595 31.8556 35.6395 31.6876 35.6595L27.4957 36.1355C27.0077 36.1915 26.5197 36.1435 26.0517 35.9915L19.3758 33.8476C16.6838 32.9836 13.7439 33.3836 11.3839 34.9476L3 40.4875" fill="url(#paint10_linear_1890_8039)"/>
<defs>
<linearGradient id="paint0_linear_1890_8039" x1="23.3242" y1="30.844" x2="23.3242" y2="13.0882" gradientUnits="userSpaceOnUse">
<stop/>
<stop offset="0.5" stop-color="#8757E4"/>
<stop offset="0.73" stop-color="#AA88EC"/>
<stop offset="1" stop-color="#C9B3F3"/>
</linearGradient>
<linearGradient id="paint1_linear_1890_8039" x1="18.0683" y1="39.0884" x2="32.3801" y2="-15.0309" gradientUnits="userSpaceOnUse">
<stop stop-color="#939393"/>
<stop offset="0.1" stop-color="#A3A3A3"/>
<stop offset="0.38" stop-color="#CBCBCB"/>
<stop offset="0.62" stop-color="#E7E7E7"/>
<stop offset="0.84" stop-color="#F8F8F8"/>
<stop offset="1" stop-color="white"/>
</linearGradient>
<linearGradient id="paint2_linear_1890_8039" x1="-20.6798" y1="54.7633" x2="35.2314" y2="6.30796" gradientUnits="userSpaceOnUse">
<stop stop-color="#939393"/>
<stop offset="0.1" stop-color="#A3A3A3"/>
<stop offset="0.38" stop-color="#CBCBCB"/>
<stop offset="0.62" stop-color="#E7E7E7"/>
<stop offset="0.84" stop-color="#F8F8F8"/>
<stop offset="1" stop-color="white"/>
</linearGradient>
<linearGradient id="paint3_linear_1890_8039" x1="20.8157" y1="18.1082" x2="30.4126" y2="14.4913" gradientUnits="userSpaceOnUse">
<stop stop-color="#7C47E1"/>
<stop offset="1" stop-color="#D0BDF4"/>
</linearGradient>
<linearGradient id="paint4_linear_1890_8039" x1="23.0794" y1="34.8999" x2="23.1354" y2="29.268" gradientUnits="userSpaceOnUse">
<stop stop-color="#939393"/>
<stop offset="0.1" stop-color="#A3A3A3"/>
<stop offset="0.47" stop-color="#CBCBCB"/>
<stop offset="0.74" stop-color="#E7E7E7"/>
<stop offset="0.93" stop-color="#F8F8F8"/>
<stop offset="1" stop-color="white"/>
</linearGradient>
<linearGradient id="paint5_linear_1890_8039" x1="24.1475" y1="33.088" x2="23.6955" y2="36.1999" gradientUnits="userSpaceOnUse">
<stop stop-color="white"/>
<stop offset="1" stop-color="#777777"/>
</linearGradient>
<linearGradient id="paint6_linear_1890_8039" x1="38.1838" y1="29.0075" x2="36.9598" y2="42.6434" gradientUnits="userSpaceOnUse">
<stop stop-color="white"/>
<stop offset="0.67" stop-color="#666666"/>
<stop offset="0.78" stop-color="#777777"/>
<stop offset="0.95" stop-color="#939393"/>
<stop offset="1" stop-color="#989898"/>
</linearGradient>
<linearGradient id="paint7_linear_1890_8039" x1="35.2198" y1="26.656" x2="39.7837" y2="40.0998" gradientUnits="userSpaceOnUse">
<stop stop-color="white"/>
<stop offset="0.67" stop-color="#666666"/>
<stop offset="0.78" stop-color="#777777"/>
<stop offset="0.95" stop-color="#939393"/>
<stop offset="1" stop-color="#989898"/>
</linearGradient>
<linearGradient id="paint8_linear_1890_8039" x1="33.0281" y1="27.8888" x2="37.152" y2="42.3646" gradientUnits="userSpaceOnUse">
<stop stop-color="white"/>
<stop offset="0.67" stop-color="#666666"/>
<stop offset="0.78" stop-color="#777777"/>
<stop offset="0.95" stop-color="#939393"/>
<stop offset="1" stop-color="#989898"/>
</linearGradient>
<linearGradient id="paint9_linear_1890_8039" x1="23.3877" y1="44.6553" x2="18.4837" y2="26.0476" gradientUnits="userSpaceOnUse">
<stop stop-color="#939393"/>
<stop offset="0.1" stop-color="#A3A3A3"/>
<stop offset="0.47" stop-color="#CBCBCB"/>
<stop offset="0.74" stop-color="#E7E7E7"/>
<stop offset="0.93" stop-color="#F8F8F8"/>
<stop offset="1" stop-color="white"/>
</linearGradient>
<linearGradient id="paint10_linear_1890_8039" x1="17.8438" y1="39.7955" x2="11.3519" y2="46.5074" gradientUnits="userSpaceOnUse">
<stop stop-color="white" stop-opacity="0"/>
<stop offset="1" stop-color="white"/>
</linearGradient>
</defs>
</svg>
