<svg width="80" height="80" viewBox="0 0 80 80" fill="none" xmlns="http://www.w3.org/2000/svg">
<path opacity="0.3" d="M40.0167 75.9712C59.9 75.9378 76.0167 73.1045 76 69.6212C76 66.1545 59.8667 63.3545 39.9833 63.3712C20.1 63.4045 4 66.2545 4 69.7212C4 73.2045 20.1333 76.0045 40.0167 75.9712Z" fill="url(#paint0_radial_2880_8516)"/>
<path d="M28.05 5.66C20.38 10.71 12.83 12.31 8.58001 12.83C6.55001 13.08 5.01001 14.8 5.01001 16.85V35.32C5.01001 47.17 12.23 57.8 23.26 62.24L28.68 64.42C29.18 64.62 29.7 64.7 30.21 64.7H33.66L37.16 62.15C48.21 57.6 55.41 46.88 55.41 35.03V16.54C55.41 14.51 53.89 12.81 51.84 12.57C47.59 12.1 41.42 9.97 33.74 5H30.22C29.47 5 28.7 5.22 28.05 5.65H28.03L28.05 5.66Z" fill="url(#paint1_linear_2880_8516)"/>
<path d="M31.52 5.66002C23.84 10.71 16.3 12.31 12.04 12.83C10.01 13.08 8.46997 14.8 8.46997 16.85V35.32C8.46997 47.17 15.69 57.8 26.72 62.24L32.14 64.42C33.12 64.82 34.24 64.82 35.22 64.4L40.64 62.17C51.69 57.62 58.89 46.9 58.89 35.05V16.54C58.89 14.51 57.37 12.81 55.32 12.57C51.05 12.1 43.52 10.57 35.84 5.62002C34.54 4.79002 32.82 4.79002 31.51 5.64002L31.53 5.66002H31.52Z" fill="url(#paint2_linear_2880_8516)"/>
<path d="M31.77 9.56131C25.17 13.8913 18.7 15.2613 15.05 15.7113C13.3 15.9113 12 17.3913 12 19.1413V34.9913C12 45.1613 18.18 54.2913 27.67 58.0913L32.32 59.9613C33.17 60.3113 34.12 60.2913 34.95 59.9613L39.6 58.0413C49.08 54.1213 55.27 44.9213 55.27 34.7613V18.9113C55.27 17.1613 53.97 15.6913 52.22 15.5113C48.57 15.1113 42.09 13.7913 35.5 9.54131C34.38 8.81131 32.92 8.82131 31.78 9.56131H31.76H31.77Z" fill="url(#paint3_linear_2880_8516)"/>
<path d="M33.3596 45.2784C31.7554 45.2784 30.3302 45.0033 29.084 44.4531C27.8444 43.8963 26.87 43.1307 26.1607 42.1562C25.4514 41.1818 25.0935 40.0616 25.0868 38.7955H30.655C30.6616 39.1866 30.781 39.5379 31.013 39.8494C31.2516 40.1544 31.5764 40.393 31.9874 40.5653C32.3984 40.7377 32.869 40.8239 33.3993 40.8239C33.9097 40.8239 34.3605 40.7344 34.7516 40.5554C35.1427 40.3698 35.4476 40.1146 35.6664 39.7898C35.8851 39.465 35.9912 39.0937 35.9846 38.6761C35.9912 38.2652 35.8652 37.9006 35.6067 37.5824C35.3548 37.2642 35.0002 37.0156 34.5428 36.8366C34.0854 36.6577 33.5584 36.5682 32.9618 36.5682H30.8936V32.75H32.9618C33.512 32.75 33.9959 32.6605 34.4135 32.4815C34.8378 32.3026 35.1659 32.054 35.3979 31.7358C35.6365 31.4176 35.7525 31.053 35.7459 30.642C35.7525 30.2443 35.6564 29.893 35.4576 29.5881C35.2587 29.2831 34.9803 29.0445 34.6223 28.8722C34.271 28.6998 33.8633 28.6136 33.3993 28.6136C32.8955 28.6136 32.4448 28.7031 32.0471 28.8821C31.656 29.0611 31.3477 29.3097 31.1223 29.6278C30.897 29.946 30.781 30.3106 30.7743 30.7216H25.4846C25.4912 29.4754 25.8326 28.375 26.5087 27.4205C27.1915 26.4659 28.1261 25.7169 29.3127 25.1733C30.4992 24.6297 31.8614 24.358 33.3993 24.358C34.9041 24.358 36.2331 24.6132 37.3865 25.1236C38.5466 25.634 39.4514 26.3366 40.101 27.2315C40.7573 28.1198 41.0821 29.1373 41.0755 30.2841C41.0887 31.4242 40.6976 32.3589 39.9022 33.0881C39.1133 33.8172 38.1124 34.2481 36.8993 34.3807V34.5398C38.5433 34.7187 39.7795 35.2225 40.6081 36.0511C41.4367 36.8731 41.8444 37.9072 41.8311 39.1534C41.8378 40.3466 41.4798 41.4039 40.7573 42.3253C40.0414 43.2467 39.0437 43.9692 37.7644 44.4929C36.4917 45.0166 35.0234 45.2784 33.3596 45.2784Z" fill="#939393"/>
<path d="M55.7999 38.9883H51.3999V65.5583H55.7999V38.9883Z" fill="url(#paint4_linear_2880_8516)"/>
<path d="M74.18 49.7584C74.18 56.1284 59.37 65.6184 59.37 65.6184C59.37 65.6184 60.71 65.6184 58.32 65.6184C49.56 65.6184 42.46 58.5184 42.46 49.7584C42.46 40.9984 49.56 33.8984 58.32 33.8984C60.15 33.8984 59.73 33.8984 59.73 33.8984C59.73 33.8984 74.18 45.7584 74.18 49.7584Z" fill="url(#paint5_linear_2880_8516)"/>
<path d="M59.86 65.72C68.6192 65.72 75.72 58.6192 75.72 49.86C75.72 41.1008 68.6192 34 59.86 34C51.1008 34 44 41.1008 44 49.86C44 58.6192 51.1008 65.72 59.86 65.72Z" fill="url(#paint6_radial_2880_8516)"/>
<path d="M57.7916 54.7319L53.1258 50.0813C52.9581 49.9136 52.9581 49.6544 53.1258 49.4867L54.4066 48.2211C54.5743 48.0534 54.8335 48.0534 55.0013 48.2211L58.0966 51.3011L65.3177 44.1258C65.4854 43.9581 65.7446 43.9581 65.9123 44.1258L67.1931 45.3914C67.3609 45.5591 67.3609 45.8183 67.1931 45.986L58.4015 54.7319C58.2338 54.8996 57.9746 54.8996 57.8069 54.7319H57.7916Z" fill="white"/>
<defs>
<radialGradient id="paint0_radial_2880_8516" cx="0" cy="0" r="1" gradientUnits="userSpaceOnUse" gradientTransform="translate(39.612 70.3555) rotate(-0.33) scale(35.7 5.68333)">
<stop stop-color="#848484"/>
<stop offset="1" stop-color="#878787" stop-opacity="0"/>
</radialGradient>
<linearGradient id="paint1_linear_2880_8516" x1="30.22" y1="65.18" x2="30.22" y2="27.61" gradientUnits="userSpaceOnUse">
<stop/>
<stop offset="0.5" stop-color="#666666"/>
<stop offset="0.73" stop-color="#777777"/>
<stop offset="0.95" stop-color="#939393"/>
<stop offset="1" stop-color="#989898"/>
</linearGradient>
<linearGradient id="paint2_linear_2880_8516" x1="19.12" y1="82.63" x2="49.39" y2="-31.86" gradientUnits="userSpaceOnUse">
<stop stop-color="#939393"/>
<stop offset="0.1" stop-color="#A3A3A3"/>
<stop offset="0.38" stop-color="#CBCBCB"/>
<stop offset="0.62" stop-color="#E7E7E7"/>
<stop offset="0.84" stop-color="#F8F8F8"/>
<stop offset="1" stop-color="white"/>
</linearGradient>
<linearGradient id="paint3_linear_2880_8516" x1="-62.91" y1="115.551" x2="55.37" y2="13.0513" gradientUnits="userSpaceOnUse">
<stop stop-color="#939393"/>
<stop offset="0.1" stop-color="#A3A3A3"/>
<stop offset="0.38" stop-color="#CBCBCB"/>
<stop offset="0.62" stop-color="#E7E7E7"/>
<stop offset="0.84" stop-color="#F8F8F8"/>
<stop offset="1" stop-color="white"/>
</linearGradient>
<linearGradient id="paint4_linear_2880_8516" x1="53.5999" y1="65.4583" x2="53.5999" y2="38.8883" gradientUnits="userSpaceOnUse">
<stop stop-opacity="0"/>
<stop offset="1"/>
</linearGradient>
<linearGradient id="paint5_linear_2880_8516" x1="49.91" y1="61.9984" x2="79.67" y2="13.5884" gradientUnits="userSpaceOnUse">
<stop stop-color="#7C47E1"/>
<stop offset="1" stop-color="#D0BDF4"/>
</linearGradient>
<radialGradient id="paint6_radial_2880_8516" cx="0" cy="0" r="1" gradientUnits="userSpaceOnUse" gradientTransform="translate(68.35 36.58) scale(50.17 50.17)">
<stop stop-color="#D0BDF4"/>
<stop offset="1" stop-color="#7C47E1"/>
</radialGradient>
</defs>
</svg>
