<svg width="20" height="15" viewBox="0 0 20 15" fill="none" xmlns="http://www.w3.org/2000/svg">
<path d="M19.9998 5.21875V9.76128C19.9998 10.1091 19.8378 10.4109 19.5104 10.619C15.4027 13.2245 12.2925 14.3192 11.2046 14.6244C9.70406 15.0439 8.90946 15.0012 8.77987 14.991C6.03968 14.8 1.42383 11.1476 1.42383 11.1476C1.42383 11.1476 5.18881 12.0377 13.8902 8.02884C15.522 7.27687 17.3414 6.46522 19.4593 5.51545C19.4593 5.51545 19.9213 5.32276 19.9998 5.21875Z" fill="#0D8452"/>
<path d="M19.7591 5.09198C19.812 5.05959 19.8819 5.01525 19.9058 4.92999C19.9279 4.85156 19.9177 4.75436 19.8734 4.68445C19.7932 4.55656 19.6585 4.47131 19.5102 4.37752C15.4024 1.77205 12.2922 0.677338 11.2043 0.372115C9.70381 -0.0473532 8.9075 -0.00301915 8.77791 0.00550662C6.03773 0.196484 1.42188 3.84893 1.42188 3.84893C1.42188 3.84893 5.18686 2.95883 13.8883 6.96765C14.1679 7.09724 14.4544 7.22684 14.746 7.35984L19.4999 5.22669C19.4999 5.22669 19.6756 5.14143 19.7574 5.09198H19.7591Z" fill="#0DB272"/>
<path d="M5.83333 7.49265C5.83845 6.52413 5.96293 5.55389 6.19312 4.59559L6.22381 4.47623C4.51013 4.08575 3.24661 4.00391 2.48782 4.00391C1.86203 4.00391 1.52952 4.05847 1.41528 4.08234C1.21066 4.12668 1.06743 4.28355 0.963413 4.41485C0.351262 5.20092 0 6.32292 0 7.49265C0 8.66239 0.349557 9.78268 0.963413 10.5705C1.06572 10.7018 1.21066 10.8603 1.41528 10.903C1.52952 10.9268 1.86032 10.9814 2.48782 10.9814C3.24661 10.9814 4.51013 10.8996 6.22381 10.5091L6.19312 10.3897C5.96293 9.43141 5.83674 8.46118 5.83333 7.49265Z" fill="#63E08D"/>
</svg>
