<svg width="85" height="14" viewBox="0 0 85 14" fill="none" xmlns="http://www.w3.org/2000/svg">
<g clip-path="url(#clip0_1941_12829)">
<path d="M18.4614 4.9082V9.07312C18.4614 9.39205 18.3129 9.66877 18.0127 9.85951C14.2465 12.2484 11.3948 13.2521 10.3974 13.532C9.02159 13.9165 8.29304 13.8775 8.17422 13.8681C5.66183 13.693 1.42969 10.3442 1.42969 10.3442C1.42969 10.3442 4.88169 11.1603 12.8598 7.4847C14.3559 6.79523 16.0241 6.05105 17.9658 5.18024C17.9658 5.18024 18.3895 5.00357 18.4614 4.9082Z" fill="#0D8452"/>
<path d="M18.2406 4.79174C18.2891 4.76203 18.3532 4.72138 18.3751 4.64321C18.3954 4.5713 18.386 4.48218 18.3454 4.41808C18.2719 4.30083 18.1484 4.22266 18.0124 4.13667C14.2461 1.74778 11.3944 0.744078 10.397 0.464228C9.0212 0.0796302 8.29109 0.120279 8.17227 0.128096C5.65988 0.303197 1.42773 3.65201 1.42773 3.65201C1.42773 3.65201 4.87974 2.83592 12.8578 6.51148C13.1142 6.6303 13.3768 6.74912 13.6442 6.87107L18.003 4.91525C18.003 4.91525 18.164 4.83708 18.239 4.79174H18.2406Z" fill="#0DB272"/>
<path d="M5.47244 6.99365C5.47713 6.10564 5.59126 5.21606 5.80232 4.33742L5.83046 4.22799C4.25923 3.86997 3.10075 3.79492 2.40503 3.79492C1.83126 3.79492 1.5264 3.84495 1.42165 3.86684C1.23404 3.90749 1.10272 4.05132 1.00735 4.1717C0.446085 4.89243 0.124023 5.92115 0.124023 6.99365C0.124023 8.06615 0.444522 9.09331 1.00735 9.8156C1.10115 9.93598 1.23404 10.0814 1.42165 10.1205C1.5264 10.1424 1.8297 10.1924 2.40503 10.1924C3.10075 10.1924 4.25923 10.1173 5.83046 9.75932L5.80232 9.64988C5.59126 8.77124 5.47556 7.88167 5.47244 6.99365Z" fill="#63E08D"/>
<path d="M60.3146 4.34103C59.9722 4.01293 59.5562 3.75378 59.0854 3.57071C58.6147 3.38527 58.0892 3.29492 57.5281 3.29492H54.9414V10.6319H57.5281C58.0892 10.6319 58.6147 10.5368 59.0878 10.349C59.5609 10.1612 59.9746 9.90203 60.317 9.57393C60.6617 9.24583 60.9304 8.85117 61.1158 8.40182C61.3036 7.95484 61.3963 7.46508 61.3963 6.94916C61.3963 6.43324 61.3036 5.94822 61.1158 5.50363C60.928 5.05666 60.6569 4.66437 60.317 4.33627H60.3146V4.34103ZM57.5281 9.56917H56.0612V4.35767H57.5281C57.9442 4.35767 58.3246 4.42662 58.6622 4.56214C58.9974 4.69765 59.2851 4.8831 59.5157 5.1161C59.7487 5.34909 59.9294 5.62726 60.0578 5.94585C60.1862 6.26443 60.2504 6.60917 60.2504 6.97293C60.2504 7.33669 60.1862 7.68856 60.0602 8.00002C59.9342 8.31147 59.7511 8.58726 59.5181 8.82026C59.2851 9.05325 58.9998 9.2387 58.6646 9.36709C58.327 9.50023 57.9466 9.56442 57.5305 9.56442H57.5281V9.56917Z" fill="#0A0A0A"/>
<path d="M66.9496 7.51348C68.3523 6.91672 68.6067 4.86017 67.4298 3.90679C66.902 3.46933 66.2173 3.29102 65.4922 3.29102H62.3301V10.628H63.4499V7.90576H65.195L67.2159 10.628H68.5948L66.4123 7.70843C66.6025 7.66088 66.7832 7.59193 66.9543 7.5111H66.952L66.9496 7.51348ZM63.4475 4.35852H65.4375C66.3314 4.36565 67.0494 4.6771 67.0589 5.58769C67.0827 6.46261 66.2102 6.90008 65.428 6.87868H63.4475V4.3609V4.35852Z" fill="#0A0A0A"/>
<path d="M70.319 3.29492H69.1992V10.6319H70.319V3.29492Z" fill="#0A0A0A"/>
<path d="M74.5506 9.06039L72.185 3.29492H70.9463L74.0822 10.6842H74.9976L78.1359 3.29492H76.9305L74.5506 9.06039Z" fill="#0A0A0A"/>
<path d="M79.8171 9.57911V7.45837H83.6187V6.40513H79.8171V4.34621H84.0657V3.29297H78.6973V10.63H84.118V9.57673H79.8171V9.57911Z" fill="#0A0A0A"/>
<path d="M25.4173 3.26953H27.374L30.4909 10.6826H28.3155L27.7829 9.36785H24.9584L24.4354 10.6826H22.3027L25.4197 3.26953H25.4173ZM27.198 7.77967L26.3825 5.68508L25.5575 7.77967H27.198Z" fill="#0A0A0A"/>
<path d="M30.2695 7.02064V7.00162C30.2695 4.85711 31.91 3.17383 34.1282 3.17383C35.6237 3.17383 36.5842 3.80625 37.2333 4.7097L35.7045 5.89846C35.2861 5.37303 34.8058 5.03542 34.1045 5.03542C33.0797 5.03542 32.357 5.90796 32.357 6.98022V6.99924C32.357 8.10479 33.0797 8.96544 34.1045 8.96544C34.8676 8.96544 35.317 8.60882 35.7592 8.0715L37.2879 9.16278C36.5985 10.1185 35.6665 10.8247 34.045 10.8247C31.9528 10.8247 30.2695 9.21746 30.2695 7.02064Z" fill="#0A0A0A"/>
<path d="M37.9463 3.32074H39.9743V6.30689L42.4945 3.32074H44.9005L42.1283 6.4852L44.9956 10.6791H42.5587L40.7185 7.94737L39.9767 8.77712V10.6791H37.9487V3.31836L37.9463 3.32074Z" fill="#0A0A0A"/>
<path d="M44.5469 7.02064V7.00162C44.5469 4.88801 46.242 3.17383 48.5007 3.17383C50.7593 3.17383 52.4331 4.86424 52.4331 6.97785V6.99686C52.4331 9.11047 50.7379 10.8247 48.4793 10.8247C46.2206 10.8247 44.5469 9.13425 44.5469 7.02064ZM50.3623 7.02064V7.00162C50.3623 5.93887 49.5991 5.01402 48.4793 5.01402C47.3595 5.01402 46.6296 5.91747 46.6296 6.98022V6.99924C46.6296 8.06199 47.3928 8.98684 48.5031 8.98684C49.6134 8.98684 50.3623 8.08339 50.3623 7.02064Z" fill="#0A0A0A"/>
</g>
<defs>
<clipPath id="clip0_1941_12829">
<rect width="84.2414" height="13.9985" fill="white"/>
</clipPath>
</defs>
</svg>
