<svg width="20" height="20" viewBox="0 0 20 20" fill="none" xmlns="http://www.w3.org/2000/svg">
<path fill-rule="evenodd" clip-rule="evenodd" d="M17.2986 6.58676C17.2647 6.86177 17.2096 7.13375 17.1338 7.40028C16.9782 7.74094 16.9782 7.74094 16.8678 7.93071C16.6703 8.21217 16.4383 8.46772 16.1771 8.69136C15.9313 8.88113 15.9313 8.88113 15.6591 9.06779C15.3303 9.25193 14.9911 9.41709 14.6434 9.56244C14.5019 9.5932 14.3645 9.64071 14.2343 9.70399C14.2343 9.73821 14.2343 9.73821 14.2436 9.7491C14.6698 9.79442 15.0781 9.94459 15.432 10.1862C15.613 10.3311 15.7802 10.4926 15.9313 10.6684C16.1045 10.9134 16.2446 11.1802 16.3482 11.4617C16.3731 11.5784 16.3996 11.6919 16.4244 11.8055C16.4416 11.9906 16.4416 12.1741 16.4416 12.3592C16.377 12.884 16.1917 13.3866 15.9002 13.8276C15.7151 14.0859 15.7151 14.0859 15.5331 14.3161C15.222 14.6458 14.8332 15.0176 14.4132 15.2074C14.1021 15.436 13.693 15.5791 13.3414 15.7254C13.119 15.7891 12.8872 15.8654 12.6663 15.9354C12.4775 15.9617 12.2905 15.9997 12.1064 16.0489C11.942 16.0584 11.7784 16.0777 11.6164 16.1065C9.37799 16.1998 7.11784 16.1578 4.87946 16.1609C4.85613 16.1142 4.83902 16.0474 4.89813 16.0209C5.97143 15.9758 7.05251 15.9245 8.12425 15.8871C8.33932 15.8957 8.55473 15.8864 8.76823 15.8591C9.48142 15.8472 10.1932 15.7905 10.8993 15.6896C10.9413 15.6694 11.1311 15.632 11.4142 15.5558C12.8141 15.1047 14.0787 14.2196 14.6636 12.8321C14.6819 12.7637 14.7074 12.6975 14.7398 12.6346C14.7709 12.479 14.8021 12.3235 14.8363 12.1679C14.844 11.7822 14.844 11.7822 14.8363 11.6313C14.7871 11.2528 14.6467 10.8919 14.4272 10.5797C14.3307 10.4709 14.2343 10.3635 14.141 10.2562C13.72 9.89171 13.1969 9.66577 12.643 9.60911C12.643 9.564 12.657 9.55777 12.6974 9.53444C12.8156 9.5066 12.9311 9.46861 13.0428 9.42089C13.9761 9.01646 14.802 8.47358 15.3263 7.58072C15.3776 7.46095 15.432 7.33962 15.4818 7.21673C15.5724 6.91948 15.6308 6.61337 15.656 6.30365C15.6436 6.16832 15.6358 6.03144 15.6265 5.893C15.5985 5.80433 15.5736 5.71412 15.5471 5.6239C15.4508 5.38272 15.3057 5.16402 15.1209 4.98147C14.8035 4.72218 14.4311 4.53864 14.0321 4.44482C14.0308 4.43553 14.0308 4.42611 14.0321 4.41682C14.2569 4.39506 14.4835 4.39976 14.7072 4.43082C14.8572 4.45963 15.0089 4.47885 15.1614 4.48837L15.5222 4.5646C15.9062 4.65695 16.2714 4.81481 16.6018 5.03125L16.8942 5.29257C16.9735 5.41546 17.0498 5.53368 17.1322 5.65345C17.1695 5.77011 17.2084 5.88367 17.2489 5.99722C17.2722 6.19477 17.294 6.39076 17.3002 6.59297L17.2986 6.58676ZM14.1145 6.07033C14.043 6.46698 14.043 6.46698 13.987 6.72208C13.8554 7.06368 13.6819 7.38763 13.4705 7.6865L13.4394 7.70361C12.8509 8.35901 12.0996 8.84731 11.2617 9.11912C11.0906 9.15957 11.0906 9.15957 11.0704 9.17357V9.21245C11.1279 9.27001 11.2384 9.25912 11.3115 9.26067C11.3666 9.27939 11.4244 9.28936 11.4826 9.29023C11.7979 9.38309 12.1008 9.51366 12.3848 9.67911C12.4066 9.70711 12.5403 9.80043 12.7612 10.0011C12.8266 10.082 12.8919 10.1566 12.9572 10.2344C13.0905 10.4381 13.1992 10.6569 13.2808 10.8862C13.3057 11.006 13.3321 11.1257 13.357 11.2408C13.3692 11.3961 13.3729 11.5519 13.3679 11.7075C13.3399 11.8724 13.3119 12.0341 13.287 12.1959C13.2434 12.2924 13.2263 12.3686 13.1501 12.5646C12.9867 12.9022 12.783 13.2187 12.5434 13.5072C12.2408 13.8149 11.9152 14.0994 11.5697 14.3581C11.4992 14.3823 11.4346 14.421 11.3799 14.4716C10.8524 14.7553 10.3012 14.9926 9.73265 15.1809C9.37488 15.254 9.01711 15.3225 8.65468 15.3707C7.98426 15.4065 7.98426 15.4065 7.79448 15.4267C7.2065 15.4438 4.93546 15.5574 4.89502 15.5496C4.88137 15.5259 4.87418 15.4991 4.87418 15.4718C4.87418 15.4445 4.88137 15.4177 4.89502 15.394C5.50167 15.2183 6.12698 15.0145 6.74141 14.8636C6.79274 14.8403 7.83026 14.5432 7.93293 14.5027C8.39958 14.4063 8.85534 14.2259 9.31422 14.1061C9.41688 14.0687 9.96753 13.9194 10.4777 13.7654C10.9288 13.6581 11.411 13.5165 11.845 13.3657C11.8609 13.3401 11.8669 13.3098 11.8621 13.2801L11.8279 13.2552C11.7859 13.2552 11.1979 13.4108 8.45247 14.0688C8.44177 14.0766 8.4303 14.0834 8.41824 14.089C7.91426 14.1854 7.40872 14.3332 6.90629 14.4467C6.8674 14.4607 6.83007 14.4747 6.79274 14.4856C4.88724 14.9398 4.88724 14.9398 4.84369 14.9523H4.7908C4.75036 14.9009 4.72858 14.8932 4.73635 14.8216C4.89764 14.7156 5.06431 14.618 5.23568 14.5292C5.3259 14.4903 6.19698 13.9956 6.28564 13.9568C6.97784 13.543 7.69804 13.1603 8.39336 12.7512C8.97667 12.4401 9.56465 12.0964 10.1495 11.7759L10.2086 11.7293C10.6535 11.5022 11.0875 11.2455 11.5246 11.0013C11.7348 10.9074 11.9353 10.7933 12.1235 10.6606C12.1308 10.6508 12.1356 10.6393 12.1372 10.6271C12.1388 10.615 12.1373 10.6026 12.1328 10.5912C12.1283 10.5798 12.1209 10.5697 12.1113 10.562C12.1018 10.5543 12.0904 10.5491 12.0784 10.5471C11.6553 10.7648 11.2353 10.9842 10.8153 11.1988C10.767 11.2121 10.7217 11.2343 10.6815 11.2642C9.4791 11.8864 9.4791 11.8864 9.37955 11.9206C9.24422 12.0015 8.88023 12.1835 8.84912 12.2099C8.32802 12.4697 7.80226 12.745 7.29361 13.0234C7.27782 13.0282 7.2617 13.0319 7.24539 13.0343C6.9654 13.2226 6.62319 13.3454 6.33542 13.5259C5.83299 13.7748 5.31967 14.033 4.82658 14.3036C4.76902 14.3176 4.38637 14.5805 4.42837 14.3223C4.60414 14.159 4.78147 13.991 4.95724 13.823C5.02123 13.7534 5.09152 13.6898 5.16723 13.6332C5.35697 13.4062 5.57198 13.2017 5.8081 13.0234C5.8221 13.0032 5.83921 12.9846 5.85632 12.9612C6.3152 12.5381 6.77718 12.101 7.21739 11.6562C8.53024 10.3993 9.85035 9.14919 11.1777 7.90582C11.2133 7.85103 11.2606 7.80481 11.3162 7.7705C12.1219 6.99274 12.1732 6.9383 13.1268 6.03144C13.189 5.98322 13.189 5.98322 13.2123 5.949C13.2123 5.79345 13.1205 5.86344 13.035 5.92567C12.8001 6.1621 12.545 6.37365 12.3039 6.60076C12.2137 6.72831 12.0519 6.82319 11.943 6.94764C11.7051 7.18811 11.4515 7.41259 11.1839 7.61961C10.9893 7.81613 10.7814 7.99908 10.5617 8.16715C9.80731 8.89046 8.98134 9.54844 8.22847 10.278C7.85982 10.5673 7.54094 10.936 7.16761 11.2191C7.06806 11.3279 7.06806 11.3279 6.40075 11.9486L6.33075 11.9968C5.58722 12.6828 4.82346 13.3579 4.06593 14.0283C3.98349 14.0283 3.96171 14.0081 3.96949 13.9194C4.87791 12.5988 5.78788 11.2751 6.68541 9.94354C7.04784 9.39289 7.40872 8.82824 7.79448 8.29159C8.0667 7.88872 8.08848 7.84361 8.18492 7.71294C8.88645 6.67231 9.62065 5.62856 10.3066 4.57549C10.3891 4.49304 10.3673 4.44015 10.2569 4.45104C9.6751 5.26768 9.07 6.07655 8.49758 6.90252C8.40113 7.02385 8.21447 7.29918 6.26542 10.0306C6.22187 10.1053 5.52189 11.0604 5.47055 11.1195C4.84835 11.9984 4.21371 12.8834 3.57284 13.7483C3.53862 13.7748 3.50439 13.8028 3.46239 13.7748V13.6923C3.91816 12.5024 4.3957 11.3062 4.89969 10.1318C5.62922 8.30403 6.35253 6.46698 7.09295 4.64237C7.09378 4.61627 7.08491 4.59077 7.06806 4.57081C7.05495 4.56993 7.04179 4.57183 7.02946 4.57639C7.01713 4.58095 7.0059 4.58806 6.99651 4.59726C6.43497 5.86189 5.8501 7.12496 5.28545 8.38648C5.26212 8.41759 4.66325 9.7491 4.49681 10.0882C4.42215 10.2671 4.36304 10.376 4.28682 10.5549C3.8015 11.5768 3.33951 12.6175 2.87441 13.6503C2.84745 13.6641 2.81759 13.6713 2.7873 13.6713C2.75702 13.6713 2.72716 13.6641 2.7002 13.6503C2.76347 13.3411 2.84238 13.0353 2.93664 12.7341C2.95686 12.6906 3.02219 12.423 3.04085 12.3795C3.05796 12.2846 3.07819 12.2395 3.30529 11.3637C3.42506 10.9266 3.54328 10.4895 3.66616 10.0524C3.68172 9.9591 4.80013 5.93967 4.80791 5.87744C4.84524 5.74989 4.88257 5.62234 4.92146 5.49479C5.06457 4.93169 5.2139 4.40593 5.33056 3.9595C5.34057 3.9346 5.35865 3.91379 5.38189 3.90039C7.37294 3.90039 9.3671 3.90039 11.3582 3.90039C11.9745 3.91928 12.5819 4.05383 13.1485 4.29705C13.2109 4.34654 13.2794 4.38784 13.3523 4.41993C13.4839 4.51409 13.6082 4.61809 13.7241 4.73104C13.7863 4.82281 13.8501 4.91303 13.9139 5.00325C13.9512 5.09814 13.9885 5.19147 14.0274 5.2848C14.057 5.42168 14.085 5.55701 14.113 5.69078C14.113 5.81522 14.113 5.93655 14.113 6.05944L14.1145 6.07033Z" fill="#F37321"/>
</svg>
