<svg width="24" height="24" viewBox="0 0 24 24" fill="none" xmlns="http://www.w3.org/2000/svg">
<path d="M11.9958 7H12.0048" stroke="#141414" stroke-width="2" stroke-linecap="round" stroke-linejoin="round"/>
<path d="M5 9.99609V19.0008M9 9.99609V19.0008" stroke="#141414" stroke-width="1.5" stroke-linecap="square" stroke-linejoin="round"/>
<path d="M15 9.99609V19.0008M19 9.99609V19.0008" stroke="#141414" stroke-width="1.5" stroke-linecap="square" stroke-linejoin="round"/>
<path d="M21 20C21 19.4477 20.5523 19 20 19H4.0001C3.44778 19 3.00004 19.4478 3.0001 20.0001L3.0003 21.9999H21V20Z" stroke="#141414" stroke-width="1.5" stroke-linecap="square" stroke-linejoin="round"/>
<path d="M3 7.5884C3 7.22524 3.19689 6.89062 3.51436 6.71425L11.5144 2.2698C11.8164 2.10201 12.1836 2.10201 12.4856 2.2698L20.4856 6.71425C20.8031 6.89062 21 7.22524 21 7.5884V9.99502H3V7.5884Z" stroke="#141414" stroke-width="1.5" stroke-linejoin="round"/>
</svg>
