<svg width="20" height="20" viewBox="0 0 20 20" fill="none" xmlns="http://www.w3.org/2000/svg">
<path fill-rule="evenodd" clip-rule="evenodd" d="M10.041 13.9553L6.15716 17.3912L8.3294 12.6959L3.90039 10.1348L8.96333 10.6758L10.041 2.59961L11.1229 10.6758L16.1901 10.1306L11.7526 12.6959L13.9291 17.3996L10.041 13.9553Z" fill="#231F20"/>
<path fill-rule="evenodd" clip-rule="evenodd" d="M10.0408 13.8588L6.37249 17.1045L8.4264 12.6671L4.23828 10.2455L9.02652 10.7568L10.0408 3.1582L11.0593 10.7568L15.8475 10.2455L11.6594 12.6671L13.7133 17.1045L10.0408 13.8588Z" fill="#EF4123"/>
<path fill-rule="evenodd" clip-rule="evenodd" d="M11.0593 10.7559H9.02655L8.43066 12.6661L10.0408 13.8579L11.6594 12.6661L11.0593 10.7559Z" fill="#007DC5"/>
<path fill-rule="evenodd" clip-rule="evenodd" d="M10.0406 13.4483C9.78128 13.4483 9.5278 13.3714 9.31227 13.2272C9.09673 13.0831 8.92881 12.8782 8.82978 12.6386C8.73075 12.3989 8.70506 12.1353 8.75596 11.8811C8.80685 11.6268 8.93204 11.3934 9.11569 11.2104C9.29933 11.0273 9.53316 10.9029 9.78758 10.8528C10.042 10.8027 10.3055 10.8293 10.5449 10.9291C10.7842 11.0289 10.9885 11.1975 11.1319 11.4135C11.2754 11.6295 11.3515 11.8832 11.3507 12.1425C11.3507 12.3143 11.3168 12.4845 11.2509 12.6432C11.185 12.8019 11.0884 12.946 10.9667 13.0673C10.845 13.1887 10.7005 13.2848 10.5416 13.3502C10.3827 13.4155 10.2124 13.4489 10.0406 13.4483V13.4483Z" fill="#231F20"/>
<path fill-rule="evenodd" clip-rule="evenodd" d="M10.0407 13.3763C9.79661 13.3763 9.55803 13.3039 9.35509 13.1683C9.15216 13.0327 8.99397 12.84 8.90057 12.6145C8.80717 12.389 8.78274 12.1409 8.83036 11.9015C8.87797 11.6621 8.9955 11.4422 9.16808 11.2696C9.34067 11.0971 9.56056 10.9795 9.79994 10.9319C10.0393 10.8843 10.2874 10.9087 10.5129 11.0021C10.7384 11.0955 10.9312 11.2537 11.0668 11.4567C11.2024 11.6596 11.2747 11.8982 11.2747 12.1422C11.2747 12.4695 11.1447 12.7834 10.9133 13.0148C10.6819 13.2463 10.368 13.3763 10.0407 13.3763Z" fill="white"/>
<path fill-rule="evenodd" clip-rule="evenodd" d="M10.0414 3.71875L9.13281 10.5609L10.0457 10.0749L10.0414 3.71875Z" fill="#F58220"/>
<path fill-rule="evenodd" clip-rule="evenodd" d="M8.09299 11.505L4.58105 10.3555L8.29585 12.4981L8.09299 11.505Z" fill="#F58220"/>
<path fill-rule="evenodd" clip-rule="evenodd" d="M15.5136 10.3496L11.2705 10.8103L11.9974 11.4991L15.5136 10.3496Z" fill="#F58220"/>
<path fill-rule="evenodd" clip-rule="evenodd" d="M11.2627 13.7827L13.4983 16.8128L11.6726 12.8867L11.2627 13.7827Z" fill="#F58220"/>
<path fill-rule="evenodd" clip-rule="evenodd" d="M6.58789 16.8114L9.84203 13.9292L8.82353 13.7812L6.58789 16.8114Z" fill="#F58220"/>
<path fill-rule="evenodd" clip-rule="evenodd" d="M10.168 13.8589L11.2034 13.711L11.626 12.7812L10.168 13.8589Z" fill="#F58220"/>
<path fill-rule="evenodd" clip-rule="evenodd" d="M8.46484 12.7852L8.87901 13.7065L9.91442 13.8586L8.46484 12.7852Z" fill="#F58220"/>
<path fill-rule="evenodd" clip-rule="evenodd" d="M8.92512 10.8398L8.18555 11.5329L8.39263 12.5388L8.92512 10.8398Z" fill="#F58220"/>
<path fill-rule="evenodd" clip-rule="evenodd" d="M11.1611 10.8398L11.9007 11.5329L11.6936 12.5345L11.1611 10.8398Z" fill="#F58220"/>
<path fill-rule="evenodd" clip-rule="evenodd" d="M10.9669 10.6842L10.0456 10.1855L9.12012 10.6842H10.9669Z" fill="#F58220"/>
</svg>
