<svg width="20" height="20" viewBox="0 0 20 20" fill="none" xmlns="http://www.w3.org/2000/svg">
<path fill-rule="evenodd" clip-rule="evenodd" d="M12.5595 4.60722L16.8022 12.4261C17.3131 13.2692 16.7826 14.1341 15.8143 13.9816C15.5082 13.9337 13.5398 13.6646 11.0508 13.328L11.761 12.3695L15.1313 12.7387C15.4101 12.7714 15.5398 12.6908 15.3796 12.3891C15.3796 12.3891 12.2066 5.99824 12.1761 5.92526C12.0671 5.72592 11.9506 5.79018 11.8493 5.96774L8.69034 11.7006C8.57379 11.9185 8.62063 12.0274 8.95177 12.0645L10.1859 12.2017L9.48007 13.0731L7.881 12.8204C7.48124 12.7703 7.35161 12.5165 7.57056 12.1048C7.73504 11.7932 11.4571 5.00263 11.4571 5.00263C11.5312 4.87192 11.5933 4.77388 11.675 4.63881C11.8907 4.24776 12.2926 4.14428 12.5595 4.60722Z" fill="#00AEEF"/>
<path fill-rule="evenodd" clip-rule="evenodd" d="M3.35585 10.6064L8.92427 9.62603L8.44825 10.4898L4.60526 11.1358C4.40919 11.1783 4.42771 11.2665 4.55079 11.3482C4.55079 11.3482 7.90361 13.6662 8.22822 13.8797C8.49074 14.0562 8.62908 14.128 8.84911 13.847C8.84911 13.847 11.5723 10.5073 11.715 10.2818C11.922 10.0029 12.0157 9.89182 11.6823 9.955L9.79134 10.2709L10.2761 9.39946L12.8119 8.9387C13.3903 8.84066 13.6191 9.2437 13.3359 9.66961C13.093 10.0171 9.07568 15.4254 9.07568 15.4254C8.81534 15.8055 8.62036 15.7903 8.31318 15.5212L3.18483 11.273C2.8733 11.0029 2.97242 10.6783 3.35585 10.6064Z" fill="#FFD400"/>
</svg>
