<svg width="24" height="24" viewBox="0 0 24 24" fill="none" xmlns="http://www.w3.org/2000/svg">
<path d="M3.8 19.7601C2.74 19.7601 2 19.0201 2 17.8801V14.6201C2 13.9401 2.19 13.2801 2.57 12.7101L3.77 10.8501C3.89 10.6701 4.02 10.5101 4.17 10.3701" stroke="#121212" stroke-width="1.5" stroke-linecap="round" stroke-linejoin="round"/>
<path d="M13.8594 10.3799C14.5794 10.7499 15.2294 11.2699 15.7594 11.9199L17.0094 13.4499L21.0594 14.4599C21.6194 14.6099 22.0094 15.0999 22.0094 15.6799V17.8799C22.0094 18.9899 21.2994 19.7599 20.2794 19.7599" stroke="#121212" stroke-width="1.5" stroke-linecap="round" stroke-linejoin="round"/>
<path d="M17.6295 21.9503C18.8395 21.9503 19.8195 20.9703 19.8195 19.7603C19.8195 18.5503 18.8395 17.5703 17.6295 17.5703C16.4195 17.5703 15.4395 18.5503 15.4395 19.7603C15.4395 20.9703 16.4195 21.9503 17.6295 21.9503Z" stroke="#121212" stroke-width="1.5" stroke-linecap="round" stroke-linejoin="round"/>
<path d="M6.00055 21.9503C7.21055 21.9503 8.19055 20.9703 8.19055 19.7603C8.19055 18.5503 7.21055 17.5703 6.00055 17.5703C4.79055 17.5703 3.81055 18.5503 3.81055 19.7603C3.81055 20.9703 4.79055 21.9503 6.00055 21.9503Z" stroke="#121212" stroke-width="1.5" stroke-linecap="round" stroke-linejoin="round"/>
<path d="M2.4707 13.4502H17.0107Z" fill="#4B4B4B"/>
<path d="M2.4707 13.4502H17.0107" stroke="#121212" stroke-width="1.5" stroke-linecap="round" stroke-linejoin="round"/>
<path d="M8.7207 19.7598H15.2907Z" fill="#4B4B4B"/>
<path d="M8.7207 19.7598H15.2907" stroke="#121212" stroke-width="1.5" stroke-linecap="round" stroke-linejoin="round"/>
<path d="M13.1096 6.21V4.88C13.1096 4.13 13.1096 3.75 12.9196 3.51C12.7296 3.27 12.3196 3.15 11.4796 2.91C10.9096 2.75 10.3996 2.55 9.99961 2.37C9.44961 2.13 9.17961 2 8.97961 2C8.77961 2 8.50961 2.12 7.95961 2.37C7.55961 2.55 7.04961 2.74 6.47961 2.91C5.63961 3.15 5.21961 3.27 5.03961 3.51C4.84961 3.75 4.84961 4.13 4.84961 4.88V6.21C4.84961 8.79 7.16961 10.33 8.32961 10.94C8.60961 11.09 8.74961 11.16 8.96961 11.16C9.18961 11.16 9.33961 11.09 9.60961 10.94C10.7696 10.33 13.0896 8.78 13.0896 6.21H13.1096Z" stroke="#121212" stroke-width="1.5" stroke-linecap="round"/>
</svg>
