<svg width="24" height="24" viewBox="0 0 24 24" fill="none" xmlns="http://www.w3.org/2000/svg">
<path d="M20.98 12.54L17.17 11.59L16.09 10.25C15.6 9.64 14.85 8.82 14.11 8.37C13.76 8.15 13.3 8.26 13.08 8.61C12.86 8.96 12.97 9.42 13.32 9.64C13.76 9.91 14.33 10.46 14.92 11.19L16.16 12.72C16.26 12.85 16.4 12.94 16.56 12.98L20.61 13.99C20.84 14.05 20.99 14.24 20.99 14.47V16.68C20.99 17.31 20.69 17.7 20.19 17.78C19.84 16.54 18.72 15.62 17.37 15.62C16.02 15.62 14.87 16.55 14.54 17.81H8.57C8.24 16.55 7.1 15.62 5.74 15.62C4.38 15.62 3.35 16.48 2.96 17.65C2.67 17.47 2.49 17.15 2.49 16.69V13.42C2.49 13.28 2.53 13.14 2.55 13H9.68C10.09 13 10.43 12.66 10.43 12.25C10.43 11.84 10.09 11.5 9.68 11.5H3.21L4.14 10.05C4.46 9.55 5.01 9.25 5.61 9.25H6.87C7.28 9.25 7.62 8.91 7.62 8.5C7.62 8.09 7.28 7.75 6.87 7.75H5.61C4.5 7.75 3.48 8.31 2.88 9.24L1.68 11.1C1.23 11.79 1 12.59 1 13.42V16.69C1 18 1.76 18.97 2.9 19.24C3.21 20.53 4.37 21.5 5.75 21.5C7.13 21.5 8.25 20.57 8.58 19.31H14.55C14.88 20.57 16.02 21.5 17.38 21.5C18.74 21.5 19.89 20.56 20.22 19.29C21.55 19.19 22.5 18.13 22.5 16.68V14.47C22.5 13.55 21.88 12.76 20.98 12.53V12.54ZM5.75 20.01C4.96 20.01 4.31 19.36 4.31 18.57C4.31 17.78 4.96 17.13 5.75 17.13C6.54 17.13 7.19 17.78 7.19 18.57C7.19 19.36 6.54 20.01 5.75 20.01ZM17.38 20.01C16.59 20.01 15.94 19.36 15.94 18.57C15.94 17.78 16.59 17.13 17.38 17.13C18.17 17.13 18.82 17.78 18.82 18.57C18.82 19.36 18.17 20.01 17.38 20.01Z" fill="#0F0F10"/>
<path d="M9.80007 7.91H9.36007C9.04007 7.91 8.76007 8.11 8.65007 8.41C8.54007 8.71 8.64007 9.04 8.89007 9.24L12.1001 11.84C12.2401 11.95 12.4101 12.01 12.5701 12.01C12.7901 12.01 13.0001 11.92 13.1501 11.73C13.4101 11.41 13.3601 10.94 13.0401 10.67L11.1101 9.11C11.4701 8.93 11.7901 8.68 12.0501 8.36C12.3601 7.97 12.5701 7.49 12.6801 6.97H12.8701C13.2801 6.97 13.6201 6.63 13.6201 6.22C13.6201 5.81 13.2801 5.47 12.8701 5.47H12.6901C12.6201 5.13 12.5101 4.8 12.3501 4.5H12.8701C13.2801 4.5 13.6201 4.16 13.6201 3.75C13.6201 3.34 13.2801 3 12.8701 3H9.37007C8.96007 3 8.62007 3.34 8.62007 3.75C8.62007 4.16 8.96007 4.5 9.37007 4.5H9.80007C10.5701 4.5 10.9601 4.97 11.1401 5.47H9.37007C8.96007 5.47 8.62007 5.81 8.62007 6.22C8.62007 6.63 8.96007 6.97 9.37007 6.97H11.1301C10.9401 7.46 10.5501 7.9 9.80007 7.9V7.91Z" fill="#0F0F10"/>
</svg>
