<svg width="24" height="24" viewBox="0 0 24 24" fill="none" xmlns="http://www.w3.org/2000/svg">
<path d="M20.02 16.06C21.05 16.06 21.75 15.3 21.75 14.18V11.97C21.75 11.4 21.36 10.9 20.8 10.76L16.75 9.75L15.51 8.22C14.37 6.82 12.65 6 10.84 6H5.61C4.76 6 3.97 6.43 3.51 7.15L2.31 9.01C1.94 9.58 1.75 10.24 1.75 10.92V14.19C1.75 15.33 2.49 16.07 3.55 16.07" stroke="#0F0F10" stroke-width="1.5" stroke-miterlimit="10"/>
<path d="M17.3799 18.25C18.5899 18.25 19.5699 17.27 19.5699 16.06C19.5699 14.85 18.5899 13.87 17.3799 13.87C16.1699 13.87 15.1899 14.85 15.1899 16.06C15.1899 17.27 16.1699 18.25 17.3799 18.25Z" stroke="#0F0F10" stroke-width="1.5" stroke-linejoin="round"/>
<path d="M5.75006 18.25C6.96006 18.25 7.94006 17.27 7.94006 16.06C7.94006 14.85 6.96006 13.87 5.75006 13.87C4.54006 13.87 3.56006 14.85 3.56006 16.06C3.56006 17.27 4.54006 18.25 5.75006 18.25Z" stroke="#0F0F10" stroke-width="1.5" stroke-linejoin="round"/>
<path d="M2.21997 9.75H16.76" stroke="#0F0F10" stroke-width="1.5" stroke-miterlimit="10"/>
<path d="M8.46997 16.06H15.04" stroke="#0F0F10" stroke-width="1.5" stroke-miterlimit="10"/>
</svg>
