<svg width="80" height="80" viewBox="0 0 80 80" fill="none" xmlns="http://www.w3.org/2000/svg">
<g clip-path="url(#clip0_23223_738)">
<g opacity="0.8">
<path d="M48.7278 51.9496C44.1667 51.8387 39.1471 51.7768 33.8764 51.7768C12.9611 51.7768 -4.00073 52.7429 -4.00073 53.9418C-4.00073 55.1408 12.9611 56.1069 33.8764 56.1069C39.1471 56.1069 44.1667 56.045 48.7278 55.934V51.9496Z" fill="url(#paint0_radial_23223_738)"/>
<path d="M48.7276 24.4458H32.0568C29.537 24.4458 28.0088 24.464 26.1512 25.4937C23.3731 27.0475 18.7246 32.0198 14.0925 33.8373H14.1016C14.1016 33.8373 8.2415 34.9235 3.99331 36.7628C2.56693 37.3796 1.62087 38.8132 1.68455 39.5501L2.18123 45.7777C2.34679 47.5079 3.80955 48.8324 5.54703 48.8324L48.7276 47.4679V24.4458Z" fill="url(#paint1_linear_23223_738)"/>
<path d="M4.38062 46.9644C4.38062 50.3594 6.51472 53.0902 9.1546 53.0902H12.3749V40.8278H9.1546C6.52381 40.8278 4.38062 43.5786 4.38062 46.9535V46.9626V46.9644Z" fill="black"/>
<path d="M12.3832 53.0793C9.75245 53.0793 7.60925 50.3284 7.60925 46.9535C7.60925 43.5786 9.74336 40.8278 12.3832 40.8278C15.0231 40.8278 17.1572 43.5786 17.1572 46.9535C17.1572 50.3284 15.0231 53.0793 12.3832 53.0793Z" fill="url(#paint2_linear_23223_738)"/>
<path d="M19.0155 46.9644C19.0155 50.3594 21.1496 53.0902 23.7895 53.0902H27.0097V40.8278H23.7895C21.1587 40.8278 19.0155 43.5786 19.0155 46.9535V46.9626V46.9644Z" fill="black"/>
<path d="M14.1009 33.8384C19.1987 32.0208 23.2995 27.114 26.1978 25.4675C28.25 24.3723 30.3368 24.4469 32.8584 24.4469H43.8964C42.3882 24.4469 39.5082 24.4833 38.4238 25.2656L31.6176 33.8475C31.6176 33.8475 23.4687 35.816 19.0805 38.5014C18.2799 38.989 17.9397 39.5675 17.9033 40.4608L18.4273 47.2397C18.4273 47.2397 18.3636 48.8408 20.1757 48.8408H5.57357C3.83427 48.8408 2.38242 47.5163 2.20777 45.7879C2.20777 45.7879 1.77476 40.4426 1.71108 39.5602C1.64741 38.6779 2.88821 37.1878 4.6548 36.5055C9.07037 34.8226 14.1209 33.8384 14.1209 33.8384H14.1027H14.1009Z" fill="url(#paint3_linear_23223_738)"/>
<path d="M48.727 25.5745C43.0706 25.2653 27.1622 25.2653 27.1622 25.2653C26.8584 25.2653 26.5546 25.3198 26.2798 25.449C23.4562 26.7553 14.1011 33.8472 14.1011 33.8472H44.9628L48.7288 33.5652V25.5745H48.727Z" fill="black"/>
<path d="M48.7295 36.1819L33.6488 36.5931C33.6488 36.5931 25.2143 36.6768 19.4652 38.3324C18.5264 38.6089 17.8823 39.4822 17.8823 40.4665L18.4245 47.5128C18.4882 48.2679 19.1231 48.8373 19.8782 48.8373L48.7276 48.4898V36.1837L48.7295 36.1819Z" fill="url(#paint4_linear_23223_738)"/>
<path d="M29.9222 33.8471H14.1011C14.1011 33.8471 22.2882 27.0409 26.3253 25.4308C26.6382 25.2744 27.0603 25.2653 27.4115 25.2653C31.2012 25.2653 34.8526 25.2925 38.3385 25.3289C35.2201 26.93 32.3601 30.3886 29.9131 33.8471H29.9222Z" fill="url(#paint5_linear_23223_738)"/>
<path d="M27.0174 53.0793C24.3866 53.0793 22.2434 50.3284 22.2434 46.9535C22.2434 43.5786 24.3775 40.8278 27.0174 40.8278C29.6573 40.8278 31.7914 43.5786 31.7914 46.9535C31.7914 50.3284 29.6573 53.0793 27.0174 53.0793Z" fill="url(#paint6_linear_23223_738)"/>
<path d="M27.1818 50.7918C25.6644 50.7918 24.4309 49.0725 24.4309 46.9475C24.4309 44.8225 25.6644 43.1032 27.1818 43.1032C28.6991 43.1032 29.9326 44.8225 29.9326 46.9475C29.9326 49.0725 28.7009 50.7918 27.1818 50.7918Z" fill="url(#paint7_linear_23223_738)"/>
<path d="M27.1806 49.2227C26.2891 49.2227 25.5704 48.2111 25.5704 46.9685C25.5704 45.7259 26.2873 44.7143 27.1806 44.7143C28.0739 44.7143 28.7907 45.7259 28.7907 46.9685C28.7907 48.2111 28.0739 49.2227 27.1806 49.2227Z" fill="url(#paint8_linear_23223_738)"/>
<path d="M20.3941 38.0902C20.3941 38.0902 12.6037 38.4577 8.01343 38.4031C3.4232 38.3486 2.54991 37.8046 2.54991 37.8046C2.54991 37.8046 1.62932 38.6597 1.68572 39.5621L1.74939 40.2789C1.74939 40.2789 2.42074 40.6737 3.67245 40.7483C4.34379 40.7847 4.92417 40.7392 5.32806 40.2061C5.53001 39.9478 6.13768 39.14 6.13768 39.14C6.13768 39.14 8.29907 39.2419 11.2519 39.1036C11.2519 39.1036 12.1252 40.4463 12.862 40.7956C13.3041 40.9975 16.468 40.8884 17.9489 40.6573C19.8629 40.3535 20.3869 38.0902 20.3869 38.0902H20.396H20.3941Z" fill="#939393"/>
<path d="M43.5344 36.3509L41.2985 36.3873V37.0313C41.3167 37.3352 41.5659 37.5826 41.8788 37.5826L43.0014 37.5644C43.3143 37.5644 43.5617 37.3061 43.5526 36.9949V36.3509H43.5344Z" fill="url(#paint9_linear_23223_738)"/>
<path d="M43.4009 36.3509L41.4414 36.3873V36.682C41.4414 36.8112 41.5615 36.9203 41.6907 36.9203L43.1807 36.8931C43.3099 36.8931 43.4209 36.7912 43.4209 36.6547V36.36H43.4027V36.3509H43.4009Z" fill="url(#paint10_linear_23223_738)"/>
<path d="M32.8311 34.5372H36.0313C36.6299 34.5372 37.1357 33.995 37.1357 33.3237C37.1357 32.6523 36.6481 32.1102 36.0313 32.1102H35.0016C34.4594 32.1102 33.9445 32.3394 33.5388 32.736L31.865 34.539H32.8311V34.5372Z" fill="url(#paint11_linear_23223_738)"/>
<path d="M13.6067 39.8782C15.8245 39.8782 18.4353 39.6763 18.5554 39.6672C18.7573 39.6308 18.9047 39.4379 18.8683 39.2342C18.8319 39.0322 18.6481 38.8849 18.4444 38.9212C18.4171 38.9212 15.4916 39.1705 13.2756 39.1232C13.0736 39.1232 12.899 39.2888 12.8899 39.4907C12.8899 39.6927 13.0555 39.8673 13.2574 39.8764H13.6158H13.6067V39.8782Z" fill="url(#paint12_linear_23223_738)"/>
<path d="M4.79469 39.7439C4.97844 39.7439 5.144 39.6056 5.16219 39.4127C5.18948 39.2108 5.04212 39.0179 4.83107 38.9979C4.81288 38.9979 3.13907 38.9433 2.06202 38.3903C1.92375 38.574 1.77638 38.8778 1.73999 39.0798C3.0099 39.7511 4.66551 39.7329 4.73828 39.742H4.79287L4.79469 39.7439Z" fill="url(#paint13_linear_23223_738)"/>
<path d="M28.8178 37.3069H29.3781C29.5619 37.3069 29.7001 37.4543 29.7001 37.638C29.7001 37.8218 29.5528 37.9691 29.3781 37.9691H28.8178C28.634 37.9691 28.4957 37.8218 28.4957 37.638C28.4957 37.4543 28.6431 37.3069 28.8178 37.3069Z" fill="url(#paint14_linear_23223_738)"/>
<path d="M44.6775 48.5463C44.6775 48.5463 45.7545 48.0315 45.7545 45.961V37.4519C45.7545 36.9097 45.6818 36.3567 45.5253 35.8327L44.9449 33.8278" stroke="url(#paint15_linear_23223_738)" stroke-width="0.68" stroke-miterlimit="10"/>
</g>
<path d="M40.8747 59.4581L49.9777 65.7063C51.0968 66.4745 52.6267 66.19 53.3949 65.0709L78.6327 28.302C79.4008 27.1829 79.1163 25.653 77.9972 24.8849L68.8942 18.6366C67.7751 17.8685 66.2452 18.153 65.477 19.2721L40.2392 56.0409C39.4711 57.16 39.7556 58.6899 40.8747 59.4581Z" fill="url(#paint16_linear_23223_738)"/>
<path d="M62.0855 29.1514L70.6338 35.0188C70.9501 35.236 71.3826 35.1556 71.5997 34.8392L76.7588 27.323C76.9759 27.0067 76.8955 26.5742 76.5791 26.3571L68.0308 20.4896C67.7145 20.2725 67.2821 20.3529 67.0649 20.6692L61.9059 28.1855C61.6887 28.5018 61.7692 28.9342 62.0855 29.1514Z" fill="#E5E5E5"/>
<path d="M55.2591 39.0889L63.8074 44.9563C64.1237 45.1735 64.5561 45.0931 64.7733 44.7767L69.9323 37.2605C70.1495 36.9442 70.0691 36.5117 69.7527 36.2946L61.2044 30.4271C60.8881 30.21 60.4556 30.2904 60.2385 30.6067L55.0794 38.123C54.8623 38.4393 54.9427 38.8717 55.2591 39.0889Z" fill="#C4C4C4"/>
<path d="M48.38 49.119L56.9283 54.9864C57.2447 55.2036 57.6771 55.1231 57.8942 54.8068L63.0533 47.2906C63.2704 46.9742 63.19 46.5418 62.8737 46.3247L54.3254 40.4572C54.0091 40.2401 53.5766 40.3205 53.3595 40.6368L48.2004 48.153C47.9833 48.4694 48.0637 48.9018 48.38 49.119Z" fill="#A5A5A5"/>
<path d="M38.7286 61.82L50.1222 66.0426C51.395 66.5143 52.8091 65.8649 53.2808 64.5921L69.9755 19.5463C70.4472 18.2735 69.7978 16.8593 68.525 16.3876L57.1314 12.165C55.8587 11.6933 54.4445 12.3427 53.9728 13.6155L37.2782 58.6613C36.8065 59.9341 37.4559 61.3483 38.7286 61.82Z" fill="url(#paint17_linear_23223_738)"/>
<path d="M52.9307 24.8909L63.4189 28.7779C63.7787 28.9113 64.1784 28.7277 64.3117 28.3679L67.7342 19.1334C67.8675 18.7737 67.6839 18.3739 67.3242 18.2406L56.836 14.3535C56.4762 14.2202 56.0765 14.4038 55.9432 14.7635L52.5207 23.998C52.3874 24.3578 52.571 24.7575 52.9307 24.8909Z" fill="#FFB6B6"/>
<path d="M48.4481 36.9858L58.9362 40.8728C59.296 41.0062 59.6957 40.8226 59.8291 40.4628L63.2515 31.2283C63.3848 30.8686 63.2013 30.4688 62.8415 30.3355L52.3533 26.4484C51.9936 26.3151 51.5938 26.4987 51.4605 26.8584L48.0381 36.0929C47.9047 36.4527 48.0883 36.8524 48.4481 36.9858Z" fill="#FC8686"/>
<path d="M43.9266 49.1802L54.4147 53.0673C54.7745 53.2006 55.1743 53.0171 55.3076 52.6573L58.73 43.4228C58.8634 43.063 58.6798 42.6633 58.32 42.53L47.8319 38.6429C47.4721 38.5096 47.0724 38.6931 46.939 39.0529L43.5166 48.2874C43.3833 48.6472 43.5668 49.0469 43.9266 49.1802Z" fill="#CC6262"/>
<path d="M37.621 64.8548L50.9053 66.1352C52.2564 66.2654 53.4573 65.2757 53.5875 63.9246L58.5525 12.4116C58.6827 11.0606 57.693 9.85971 56.3419 9.72949L43.0576 8.44909C41.7065 8.31886 40.5056 9.30857 40.3754 10.6597L35.4104 62.1726C35.2802 63.5237 36.2699 64.7246 37.621 64.8548Z" fill="url(#paint18_linear_23223_738)"/>
<path d="M42.3198 22.7877L54.332 23.9455C54.714 23.9823 55.0534 23.7025 55.0902 23.3206L56.1105 12.7349C56.1473 12.353 55.8676 12.0136 55.4856 11.9768L43.4734 10.819C43.0915 10.7822 42.7521 11.0619 42.7153 11.4438L41.695 22.0296C41.6582 22.4115 41.9379 22.7509 42.3198 22.7877Z" fill="#DBB8FF"/>
<path d="M40.994 36.5215L53.0062 37.6793C53.3882 37.7161 53.7276 37.4364 53.7644 37.0545L54.7847 26.4687C54.8215 26.0868 54.5418 25.7474 54.1598 25.7106L42.1476 24.5528C41.7657 24.516 41.4263 24.7958 41.3895 25.1777L40.3692 35.7634C40.3324 36.1453 40.6121 36.4847 40.994 36.5215Z" fill="#C787F9"/>
<path d="M39.6577 50.3734L51.6699 51.5312C52.0518 51.568 52.3913 51.2882 52.4281 50.9063L53.4484 40.3206C53.4852 39.9387 53.2054 39.5993 52.8235 39.5625L40.8113 38.4047C40.4294 38.3679 40.09 38.6476 40.0532 39.0295L39.0329 49.6152C38.996 49.9972 39.2758 50.3366 39.6577 50.3734Z" fill="#9B64CC"/>
<path d="M45.4877 61.0272C46.8194 60.8447 47.7509 59.6173 47.5684 58.2856C47.3859 56.954 46.1584 56.0225 44.8268 56.205C43.4952 56.3875 42.5636 57.615 42.7461 58.9466C42.9287 60.2782 44.1561 61.2098 45.4877 61.0272Z" fill="url(#paint19_linear_23223_738)"/>
<path d="M45.3728 60.1678C46.2287 60.0505 46.8274 59.2616 46.7101 58.4057C46.5928 57.5498 45.8039 56.9511 44.948 57.0684C44.0921 57.1857 43.4934 57.9747 43.6107 58.8305C43.728 59.6864 44.517 60.2851 45.3728 60.1678Z" fill="#606060"/>
</g>
<defs>
<radialGradient id="paint0_radial_23223_738" cx="0" cy="0" r="1" gradientUnits="userSpaceOnUse" gradientTransform="translate(44.3941 53.9401) rotate(180) scale(51.3058 3.20521)">
<stop/>
<stop offset="1" stop-color="#414042" stop-opacity="0"/>
</radialGradient>
<linearGradient id="paint1_linear_23223_738" x1="20.6841" y1="30.8226" x2="32.2188" y2="42.4956" gradientUnits="userSpaceOnUse">
<stop stop-color="#F1F2F2"/>
<stop offset="1" stop-color="#E6E7E8"/>
</linearGradient>
<linearGradient id="paint2_linear_23223_738" x1="12.3814" y1="41.6647" x2="12.3814" y2="53.4395" gradientUnits="userSpaceOnUse">
<stop stop-color="#414042"/>
<stop offset="1"/>
</linearGradient>
<linearGradient id="paint3_linear_23223_738" x1="22.7847" y1="26.3881" x2="22.8502" y2="48.9881" gradientUnits="userSpaceOnUse">
<stop stop-color="#E8E9EA"/>
<stop offset="0.51" stop-color="white"/>
<stop offset="0.53" stop-color="#F6F6F6"/>
<stop offset="0.61" stop-color="#DCDDDE"/>
<stop offset="0.69" stop-color="#CACBCD"/>
<stop offset="0.78" stop-color="#BFC1C3"/>
<stop offset="0.88" stop-color="#BCBEC0"/>
<stop offset="1" stop-color="#828282"/>
</linearGradient>
<linearGradient id="paint4_linear_23223_738" x1="33.2358" y1="35.5506" x2="33.567" y2="48.3279" gradientUnits="userSpaceOnUse">
<stop stop-color="#E6E7E8"/>
<stop offset="0.3" stop-color="#A8A7AA"/>
<stop offset="0.76" stop-color="#BCBEC0"/>
<stop offset="1" stop-color="#828282"/>
</linearGradient>
<linearGradient id="paint5_linear_23223_738" x1="19.0461" y1="22.1214" x2="35.2638" y2="39.0014" gradientUnits="userSpaceOnUse">
<stop offset="0.14" stop-color="#414042"/>
<stop offset="0.34" stop-color="#6D6E71"/>
<stop offset="1"/>
</linearGradient>
<linearGradient id="paint6_linear_23223_738" x1="22.2434" y1="46.9535" x2="31.7932" y2="46.9535" gradientUnits="userSpaceOnUse">
<stop stop-color="#414042"/>
<stop offset="1"/>
</linearGradient>
<linearGradient id="paint7_linear_23223_738" x1="29.9417" y1="46.9475" x2="24.4309" y2="46.9475" gradientUnits="userSpaceOnUse">
<stop stop-color="#606060"/>
<stop offset="1" stop-color="#E6E7E8"/>
</linearGradient>
<linearGradient id="paint8_linear_23223_738" x1="27.1351" y1="44.7707" x2="27.2824" y2="51.908" gradientUnits="userSpaceOnUse">
<stop stop-color="#606060"/>
<stop offset="1" stop-color="#E6E7E8"/>
</linearGradient>
<linearGradient id="paint9_linear_23223_738" x1="42.421" y1="36.4528" x2="42.441" y2="37.5644" gradientUnits="userSpaceOnUse">
<stop stop-color="#DDDFE0"/>
<stop offset="1" stop-color="#A7A9AC"/>
</linearGradient>
<linearGradient id="paint10_linear_23223_738" x1="44.5252" y1="36.7239" x2="42.0018" y2="36.6129" gradientUnits="userSpaceOnUse">
<stop stop-color="#DBDCDD"/>
<stop offset="1" stop-color="#E6E7E8"/>
</linearGradient>
<linearGradient id="paint11_linear_23223_738" x1="37.9089" y1="33.582" x2="31.3137" y2="33.149" gradientUnits="userSpaceOnUse">
<stop stop-color="#DBDCDD"/>
<stop offset="1" stop-color="#E6E7E8"/>
</linearGradient>
<linearGradient id="paint12_linear_23223_738" x1="18.8737" y1="39.3979" x2="12.8881" y2="39.3979" gradientUnits="userSpaceOnUse">
<stop stop-color="#939393"/>
<stop offset="0.1" stop-color="#A3A3A3"/>
<stop offset="0.38" stop-color="#CBCBCB"/>
<stop offset="0.62" stop-color="#E7E7E7"/>
<stop offset="0.84" stop-color="#F8F8F8"/>
<stop offset="1" stop-color="white"/>
</linearGradient>
<linearGradient id="paint13_linear_23223_738" x1="1.74727" y1="38.2957" x2="2.74973" y2="38.7741" gradientUnits="userSpaceOnUse">
<stop stop-color="#606060"/>
<stop offset="1" stop-color="#E6E7E8"/>
</linearGradient>
<linearGradient id="paint14_linear_23223_738" x1="29.0998" y1="37.9873" x2="29.0998" y2="37.3251" gradientUnits="userSpaceOnUse">
<stop stop-color="#FB7674"/>
<stop offset="0.03" stop-color="#FA7976"/>
<stop offset="0.33" stop-color="#F98989"/>
<stop offset="0.65" stop-color="#F89395"/>
<stop offset="1" stop-color="#F79899"/>
</linearGradient>
<linearGradient id="paint15_linear_23223_738" x1="45.2215" y1="48.6282" x2="45.2215" y2="33.8096" gradientUnits="userSpaceOnUse">
<stop stop-color="#606060"/>
<stop offset="1" stop-color="#E6E7E8"/>
</linearGradient>
<linearGradient id="paint16_linear_23223_738" x1="54.5381" y1="48.4238" x2="70.477" y2="28.0828" gradientUnits="userSpaceOnUse">
<stop stop-color="#E8E9EA"/>
<stop offset="1" stop-color="white"/>
</linearGradient>
<linearGradient id="paint17_linear_23223_738" x1="35.7938" y1="55.7977" x2="62.5149" y2="30.772" gradientUnits="userSpaceOnUse">
<stop stop-color="#E8E9EA"/>
<stop offset="1" stop-color="white"/>
</linearGradient>
<linearGradient id="paint18_linear_23223_738" x1="34.5682" y1="38.5308" x2="50.73" y2="36.9171" gradientUnits="userSpaceOnUse">
<stop stop-color="#E8E9EA"/>
<stop offset="1" stop-color="white"/>
</linearGradient>
<linearGradient id="paint19_linear_23223_738" x1="44.935" y1="60.9387" x2="45.3852" y2="56.2677" gradientUnits="userSpaceOnUse">
<stop stop-color="#606060"/>
<stop offset="1" stop-color="#E6E7E8"/>
</linearGradient>
<clipPath id="clip0_23223_738">
<rect width="80" height="80" fill="white"/>
</clipPath>
</defs>
</svg>
