<svg width="80" height="80" viewBox="0 0 80 80" fill="none" xmlns="http://www.w3.org/2000/svg">
<g clip-path="url(#clip0_23223_779)">
<g clip-path="url(#clip1_23223_779)">
<path d="M36.285 20.7682L37.6429 20.0287C38.0477 19.8082 38.0442 19.2196 37.6347 18.9997L33.0134 16.5683C32.6457 16.3749 32.1987 16.6184 32.1616 17.0322L31.6973 22.2334C31.6533 22.6948 32.1459 23.017 32.5572 22.7985L33.8645 22.0865C35.6084 25.921 34.1155 30.5287 30.3559 32.5708C28.9053 33.3609 28.9749 34.1371 27.3532 33.9705C26.6588 33.9003 26.3548 34.6165 26.1765 35.2931C25.9645 36.1085 24.491 36.1586 25.328 36.2496C27.5106 36.4825 29.7129 36.0485 31.6696 34.9829C36.7636 32.2085 38.7397 25.9379 36.2804 20.7598L36.2869 20.7617L36.285 20.7682Z" fill="url(#paint0_linear_23223_779)"/>
<path d="M19.0818 28.7869C17.3379 24.9524 18.8263 20.3363 22.5858 18.2942C24.0449 17.4995 25.6987 17.1729 27.3315 17.3499C28.0259 17.4201 28.6776 17.0104 28.854 16.3403C29.0679 15.5184 28.5001 14.7067 27.6632 14.6158C25.4629 14.3706 23.2457 14.8072 21.2741 15.8756C16.18 18.6499 14.202 24.927 16.6678 30.1071L15.31 30.8466C14.9052 31.0671 14.9086 31.6557 15.3181 31.8756L19.9394 34.307C20.3072 34.5004 20.7542 34.257 20.7912 33.8431L21.2556 28.6419C21.2996 28.1805 20.8069 27.8583 20.3956 28.0769L19.0949 28.7907L19.0884 28.7888L19.0818 28.7869Z" fill="url(#paint1_linear_23223_779)"/>
</g>
<path d="M40.0007 62.6371C17.9132 62.6371 0.000976562 61.6165 0.000976562 60.3514C0.000976562 59.0863 17.9132 58.0657 40.0007 58.0657C62.0881 58.0657 80.0004 59.0863 80.0004 60.3514C80.0004 61.6165 62.0881 62.6371 40.0007 62.6371Z" fill="url(#paint2_radial_23223_779)"/>
<path d="M19.1167 39.1271C19.1167 39.1271 12.929 40.2733 8.44115 42.2161C6.93549 42.8669 5.93496 44.3823 6.00296 45.1594L6.5275 51.7357C6.70235 53.5619 8.24687 54.9607 10.0828 54.9607L69.4056 53.086C71.2804 52.0368 71.9895 50.0552 71.9895 47.9182L70.105 42.0898C70.105 40.0596 69.3376 38.1168 67.9582 36.6306L63.6841 31.8999C63.4704 31.6668 63.4121 31.3365 63.5287 31.0354C63.7035 30.5983 63.8978 29.9863 63.6453 29.8503C62.363 29.1606 60.2745 29.2092 58.7786 29.2092H38.0783C35.4167 29.2092 33.8041 29.2286 31.8419 30.3166C28.9083 31.9582 23.9995 37.2081 19.107 39.1271H19.1264H19.1167Z" fill="url(#paint3_linear_23223_779)"/>
<path d="M8.85012 52.9914C8.85012 56.5758 11.1038 59.4608 13.8916 59.4608H17.2915V46.5122H13.8916C11.1135 46.5122 8.85012 49.4167 8.85012 52.9817V52.9914Z" fill="black"/>
<path d="M17.3006 59.4606C14.5225 59.4606 12.2591 56.5561 12.2591 52.9911C12.2591 49.4261 14.5128 46.5217 17.3006 46.5217C20.0885 46.5217 22.3422 49.4261 22.3422 52.9911C22.3422 56.5561 20.0885 59.4606 17.3006 59.4606Z" fill="url(#paint4_linear_23223_779)"/>
<path d="M24.3051 52.9914C24.3051 56.5758 26.5587 59.4608 29.3466 59.4608H32.7465V46.5122H29.3466C26.5684 46.5122 24.3051 49.4167 24.3051 52.9817V52.9914Z" fill="black"/>
<path d="M56.1666 52.9914C56.1666 56.5758 58.4203 59.4608 61.2082 59.4608H64.608V46.5122H61.2082C58.43 46.5122 56.1666 49.4167 56.1666 52.9817V52.9914Z" fill="black"/>
<path d="M19.1167 39.1274C24.4996 37.2084 28.8306 32.0266 31.8905 30.2878C34.0567 29.1318 36.2618 29.2095 38.9234 29.2095H50.5801C48.987 29.2095 45.9465 29.2484 44.8003 30.0741L37.612 39.1371C37.612 39.1371 29.0055 41.2159 24.372 44.0524C23.5269 44.5672 23.1674 45.1792 23.1286 46.1214L23.6823 53.2806C23.6823 53.2806 23.6143 54.9708 25.5279 54.9708H10.112C8.27603 54.9708 6.74123 53.572 6.55667 51.7458C6.55667 51.7458 6.10011 46.102 6.03212 45.1695C5.96412 44.2369 7.2755 42.6633 9.14057 41.9445C13.8032 40.1668 19.1362 39.1274 19.1362 39.1274H19.1265H19.1167Z" fill="url(#paint5_linear_23223_779)"/>
<path d="M63.9661 36.2418C63.9661 36.2418 61.6639 32.8322 60.8673 32.0454C60.0708 31.2585 58.7983 30.6951 57.1469 30.5008C53.3196 30.0637 32.9107 30.0637 32.9107 30.0637C32.5902 30.0637 32.2696 30.122 31.9782 30.258C28.996 31.6374 19.117 39.1268 19.117 39.1268H51.7071L63.0918 38.272C64.1021 38.204 64.6072 37.0286 63.9758 36.2418H63.9661Z" fill="black"/>
<path d="M71.9995 44.1461C71.9995 41.465 69.8819 40.1828 69.8819 40.1828L65.7826 41.3193L39.7591 42.0284C39.7591 42.0284 30.8514 42.1159 24.7802 43.8644C23.7894 44.1558 23.1094 45.0786 23.1094 46.118L23.6826 53.5588C23.7506 54.3554 24.4208 54.9576 25.2174 54.9576L60.7217 54.5302L69.4156 53.0829C71.2904 52.0338 71.9995 51.7423 71.9995 49.5956V44.1461Z" fill="url(#paint6_linear_23223_779)"/>
<path d="M59.6149 52.2962C59.6149 52.2962 59.2943 54.4721 57.3321 54.5692L57.6041 55.2395L59.7217 54.5401L59.9354 52.403L59.6052 52.2864L59.6149 52.2962Z" fill="black"/>
<path d="M35.8249 39.1268H19.117C19.117 39.1268 27.7624 31.9385 32.0268 30.2386C32.357 30.0734 32.8039 30.0637 33.173 30.0637C37.1751 30.0637 41.0316 30.0929 44.7131 30.1317C41.4201 31.8219 38.3991 35.4744 35.8152 39.1268H35.8249Z" fill="url(#paint7_linear_23223_779)"/>
<path d="M64.6173 59.4606C61.8391 59.4606 59.5758 56.5561 59.5758 52.9911C59.5758 49.4261 61.8294 46.5217 64.6173 46.5217C67.4052 46.5217 69.6588 49.4261 69.6588 52.9911C69.6588 56.5561 67.4052 59.4606 64.6173 59.4606Z" fill="url(#paint8_linear_23223_779)"/>
<path d="M64.7342 57.0287C63.1314 57.0287 61.8298 55.2122 61.8298 52.9683C61.8298 50.7244 63.1314 48.9079 64.7342 48.9079C66.337 48.9079 67.6387 50.7244 67.6387 52.9683C67.6387 55.2122 66.337 57.0287 64.7342 57.0287Z" fill="url(#paint9_linear_23223_779)"/>
<path d="M64.7445 55.3641C63.8023 55.3641 63.0446 54.2955 63.0446 52.9842C63.0446 51.6728 63.8023 50.6042 64.7445 50.6042C65.6868 50.6042 66.4445 51.6728 66.4445 52.9842C66.4445 54.2955 65.6868 55.3641 64.7445 55.3641Z" fill="url(#paint10_linear_23223_779)"/>
<path d="M32.7562 59.4606C29.978 59.4606 27.7147 56.5561 27.7147 52.9911C27.7147 49.4261 29.9683 46.5217 32.7562 46.5217C35.5441 46.5217 37.7977 49.4261 37.7977 52.9911C37.7977 56.5561 35.5441 59.4606 32.7562 59.4606Z" fill="url(#paint11_linear_23223_779)"/>
<path d="M32.9294 57.0287C31.3266 57.0287 30.0249 55.2122 30.0249 52.9683C30.0249 50.7244 31.3266 48.9079 32.9294 48.9079C34.5322 48.9079 35.8339 50.7244 35.8339 52.9683C35.8339 55.2122 34.5322 57.0287 32.9294 57.0287Z" fill="url(#paint12_linear_23223_779)"/>
<path d="M32.9313 55.3641C31.989 55.3641 31.2314 54.2955 31.2314 52.9842C31.2314 51.6728 31.989 50.6042 32.9313 50.6042C33.8735 50.6042 34.6312 51.6728 34.6312 52.9842C34.6312 54.2955 33.8735 55.3641 32.9313 55.3641Z" fill="url(#paint13_linear_23223_779)"/>
<path d="M25.7626 43.6191C25.7626 43.6191 17.5349 44.0077 12.6877 43.9494C7.84042 43.8911 6.9176 43.318 6.9176 43.318C6.9176 43.318 5.94621 44.2214 6.00449 45.1733L6.07249 45.931C6.07249 45.931 6.78161 46.3487 8.1027 46.4264C8.81181 46.4653 9.42379 46.4167 9.8512 45.8533C10.0649 45.5813 10.706 44.7265 10.706 44.7265C10.706 44.7265 12.9888 44.8334 16.107 44.6877C16.107 44.6877 17.0298 46.1059 17.8069 46.475C18.2732 46.6887 21.6147 46.5722 23.1787 46.3293C25.1992 46.0087 25.7529 43.6191 25.7529 43.6191H25.7626Z" fill="#939393"/>
<path d="M50.2013 41.7846L47.8408 41.8235V42.5034C47.8602 42.824 48.1225 43.0863 48.4528 43.0863L49.6379 43.0668C49.9681 43.0668 50.2304 42.7949 50.2207 42.4646V41.7846H50.2013Z" fill="url(#paint14_linear_23223_779)"/>
<path d="M50.0574 41.7846L47.9883 41.8235V42.1343C47.9883 42.2703 48.1146 42.3869 48.2506 42.3869L49.8242 42.3577C49.9602 42.3577 50.0768 42.2509 50.0768 42.1052V41.7943H50.0574V41.7846Z" fill="url(#paint15_linear_23223_779)"/>
<path d="M62.9083 41.409L60.5479 41.477L60.5673 42.157C60.5673 42.4775 60.849 42.7398 61.1793 42.7301L62.3644 42.7009C62.6849 42.7009 62.9472 42.4192 62.9375 42.089L62.9181 41.409H62.9083Z" fill="url(#paint16_linear_23223_779)"/>
<path d="M62.7613 41.409L60.6922 41.4673V41.7781C60.7019 41.9141 60.8185 42.0307 60.9642 42.021L62.5378 41.9821C62.6738 41.9821 62.7904 41.8655 62.7807 41.7198V41.409H62.7613Z" fill="url(#paint17_linear_23223_779)"/>
<path d="M38.8959 39.872H42.2763C42.9078 39.872 43.442 39.2988 43.442 38.5897C43.442 37.8806 42.9272 37.3075 42.2763 37.3075H41.1884C40.6153 37.3075 40.0713 37.5503 39.6439 37.968L37.876 39.872H38.8862H38.8959Z" fill="url(#paint18_linear_23223_779)"/>
<path d="M18.5926 45.506C20.9336 45.506 23.6924 45.2923 23.8187 45.2826C24.0324 45.2437 24.1878 45.0398 24.1489 44.8261C24.1101 44.6123 23.9158 44.4569 23.7021 44.4958C23.673 44.4958 20.5839 44.7581 18.2429 44.7095C18.0292 44.7095 17.8446 44.8843 17.8349 45.098C17.8349 45.3117 18.0098 45.4963 18.2235 45.506H18.6023H18.5926Z" fill="url(#paint19_linear_23223_779)"/>
<path d="M9.28823 45.3697C9.48251 45.3697 9.65736 45.2239 9.67679 45.02C9.70593 44.8062 9.55051 44.6023 9.32709 44.5828C9.30766 44.5828 7.53973 44.5245 6.40321 43.9417C6.2575 44.136 6.10207 44.4565 6.06321 44.6703C7.40373 45.3794 9.15224 45.3599 9.22995 45.3697H9.28823Z" fill="url(#paint20_linear_23223_779)"/>
<path d="M34.6598 42.7817H35.2523C35.4466 42.7817 35.5923 42.9371 35.5923 43.1314C35.5923 43.3257 35.4369 43.4811 35.2523 43.4811H34.6598C34.4655 43.4811 34.3198 43.3257 34.3198 43.1314C34.3198 42.9371 34.4752 42.7817 34.6598 42.7817Z" fill="url(#paint21_linear_23223_779)"/>
<path d="M51.4069 54.6547C51.4069 54.6547 52.5435 54.1108 52.5435 51.9251V42.9398C52.5435 42.3666 52.4657 41.7838 52.3006 41.2301L51.6886 39.1125" stroke="url(#paint22_linear_23223_779)" stroke-width="0.2" stroke-miterlimit="10"/>
<path d="M68.6972 37.5531C68.6972 37.5531 62.0626 36.8342 69.1829 39.9038L69.8726 40.1855C69.8726 40.1855 69.4354 38.4759 68.6972 37.5531Z" fill="url(#paint23_linear_23223_779)"/>
</g>
<defs>
<linearGradient id="paint0_linear_23223_779" x1="28.7447" y1="37.495" x2="34.4483" y2="18.1486" gradientUnits="userSpaceOnUse">
<stop stop-color="#9B64CC"/>
<stop offset="1" stop-color="#C787F9"/>
</linearGradient>
<linearGradient id="paint1_linear_23223_779" x1="18.1323" y1="34.0008" x2="23.8413" y2="14.6359" gradientUnits="userSpaceOnUse">
<stop stop-color="#9B64CC"/>
<stop offset="1" stop-color="#C787F9"/>
</linearGradient>
<radialGradient id="paint2_radial_23223_779" cx="0" cy="0" r="1" gradientUnits="userSpaceOnUse" gradientTransform="translate(42.8743 59.9516) rotate(-180) scale(39.4891 2.46643)">
<stop/>
<stop offset="1" stop-color="#414042" stop-opacity="0"/>
</radialGradient>
<linearGradient id="paint3_linear_23223_779" x1="27.9272" y1="34.105" x2="40.1085" y2="46.4319" gradientUnits="userSpaceOnUse">
<stop stop-color="#F1F2F2"/>
<stop offset="1" stop-color="#E6E7E8"/>
</linearGradient>
<linearGradient id="paint4_linear_23223_779" x1="17.3006" y1="47.4056" x2="17.3006" y2="59.8394" gradientUnits="userSpaceOnUse">
<stop stop-color="#414042"/>
<stop offset="1"/>
</linearGradient>
<linearGradient id="paint5_linear_23223_779" x1="28.277" y1="31.2592" x2="28.345" y2="55.1262" gradientUnits="userSpaceOnUse">
<stop stop-color="#E8E9EA"/>
<stop offset="0.51" stop-color="white"/>
<stop offset="0.53" stop-color="#F6F6F6"/>
<stop offset="0.61" stop-color="#DCDDDE"/>
<stop offset="0.69" stop-color="#CACBCD"/>
<stop offset="0.78" stop-color="#BFC1C3"/>
<stop offset="0.88" stop-color="#BCBEC0"/>
<stop offset="1" stop-color="#828282"/>
</linearGradient>
<linearGradient id="paint6_linear_23223_779" x1="47.4428" y1="40.7171" x2="47.7925" y2="54.2097" gradientUnits="userSpaceOnUse">
<stop stop-color="#E6E7E8"/>
<stop offset="0.3" stop-color="#A8A7AA"/>
<stop offset="0.76" stop-color="#BCBEC0"/>
<stop offset="1" stop-color="#828282"/>
</linearGradient>
<linearGradient id="paint7_linear_23223_779" x1="24.3431" y1="26.7416" x2="41.4687" y2="44.5666" gradientUnits="userSpaceOnUse">
<stop offset="0.14" stop-color="#414042"/>
<stop offset="0.34" stop-color="#6D6E71"/>
<stop offset="1"/>
</linearGradient>
<linearGradient id="paint8_linear_23223_779" x1="59.5855" y1="52.9814" x2="69.6588" y2="52.9814" gradientUnits="userSpaceOnUse">
<stop stop-color="#414042"/>
<stop offset="1"/>
</linearGradient>
<linearGradient id="paint9_linear_23223_779" x1="64.7342" y1="48.5096" x2="64.7342" y2="57.223" gradientUnits="userSpaceOnUse">
<stop stop-color="#606060"/>
<stop offset="1" stop-color="#E6E7E8"/>
</linearGradient>
<linearGradient id="paint10_linear_23223_779" x1="64.7057" y1="50.6625" x2="64.8514" y2="58.2005" gradientUnits="userSpaceOnUse">
<stop stop-color="#606060"/>
<stop offset="1" stop-color="#E6E7E8"/>
</linearGradient>
<linearGradient id="paint11_linear_23223_779" x1="27.7147" y1="52.9814" x2="37.7977" y2="52.9814" gradientUnits="userSpaceOnUse">
<stop stop-color="#414042"/>
<stop offset="1"/>
</linearGradient>
<linearGradient id="paint12_linear_23223_779" x1="35.8436" y1="52.9683" x2="30.0249" y2="52.9683" gradientUnits="userSpaceOnUse">
<stop stop-color="#606060"/>
<stop offset="1" stop-color="#E6E7E8"/>
</linearGradient>
<linearGradient id="paint13_linear_23223_779" x1="32.8827" y1="50.6625" x2="33.0381" y2="58.2005" gradientUnits="userSpaceOnUse">
<stop stop-color="#606060"/>
<stop offset="1" stop-color="#E6E7E8"/>
</linearGradient>
<linearGradient id="paint14_linear_23223_779" x1="49.8897" y1="41.8764" x2="49.9106" y2="43.0516" gradientUnits="userSpaceOnUse">
<stop stop-color="#DDDFE0"/>
<stop offset="1" stop-color="#A7A9AC"/>
</linearGradient>
<linearGradient id="paint15_linear_23223_779" x1="51.2467" y1="42.1437" x2="48.5826" y2="42.026" gradientUnits="userSpaceOnUse">
<stop stop-color="#DBDCDD"/>
<stop offset="1" stop-color="#E6E7E8"/>
</linearGradient>
<linearGradient id="paint16_linear_23223_779" x1="63.9192" y1="42.0413" x2="61.5498" y2="42.1046" gradientUnits="userSpaceOnUse">
<stop stop-color="#DDDFE0"/>
<stop offset="1" stop-color="#A7A9AC"/>
</linearGradient>
<linearGradient id="paint17_linear_23223_779" x1="64.0656" y1="41.7556" x2="61.4006" y2="41.6616" gradientUnits="userSpaceOnUse">
<stop stop-color="#DBDCDD"/>
<stop offset="1" stop-color="#E6E7E8"/>
</linearGradient>
<linearGradient id="paint18_linear_23223_779" x1="44.258" y1="38.8617" x2="37.2931" y2="38.4052" gradientUnits="userSpaceOnUse">
<stop stop-color="#DBDCDD"/>
<stop offset="1" stop-color="#E6E7E8"/>
</linearGradient>
<linearGradient id="paint19_linear_23223_779" x1="24.1586" y1="44.9912" x2="17.8349" y2="44.9912" gradientUnits="userSpaceOnUse">
<stop stop-color="#939393"/>
<stop offset="0.1" stop-color="#A3A3A3"/>
<stop offset="0.38" stop-color="#CBCBCB"/>
<stop offset="0.62" stop-color="#E7E7E7"/>
<stop offset="0.84" stop-color="#F8F8F8"/>
<stop offset="1" stop-color="white"/>
</linearGradient>
<linearGradient id="paint20_linear_23223_779" x1="6.07293" y1="43.8349" x2="7.13174" y2="44.34" gradientUnits="userSpaceOnUse">
<stop stop-color="#606060"/>
<stop offset="1" stop-color="#E6E7E8"/>
</linearGradient>
<linearGradient id="paint21_linear_23223_779" x1="34.9512" y1="43.5005" x2="34.9512" y2="42.8011" gradientUnits="userSpaceOnUse">
<stop stop-color="#FB7674"/>
<stop offset="0.03" stop-color="#FA7976"/>
<stop offset="0.33" stop-color="#F98989"/>
<stop offset="0.65" stop-color="#F89395"/>
<stop offset="1" stop-color="#F79899"/>
</linearGradient>
<linearGradient id="paint22_linear_23223_779" x1="52.0092" y1="54.7422" x2="52.0092" y2="39.0931" gradientUnits="userSpaceOnUse">
<stop stop-color="#606060"/>
<stop offset="1" stop-color="#E6E7E8"/>
</linearGradient>
<linearGradient id="paint23_linear_23223_779" x1="67.6481" y1="39.2336" x2="68.2018" y2="38.6799" gradientUnits="userSpaceOnUse">
<stop stop-color="#FB7674"/>
<stop offset="0.03" stop-color="#FA7976"/>
<stop offset="0.33" stop-color="#F98989"/>
<stop offset="0.65" stop-color="#F89395"/>
<stop offset="1" stop-color="#F79899"/>
</linearGradient>
<clipPath id="clip0_23223_779">
<rect width="80" height="80" fill="white"/>
</clipPath>
<clipPath id="clip1_23223_779">
<rect width="21.7304" height="21.7304" fill="white" transform="translate(19.0861 12.0588) rotate(16.4261)"/>
</clipPath>
</defs>
</svg>
