<svg width="80" height="80" viewBox="0 0 80 80" fill="none" xmlns="http://www.w3.org/2000/svg">
<path d="M16.8536 21.8134C17.1486 18.0906 20.2855 15.1438 24.0777 15.1668C25.5503 15.174 26.9729 15.6279 28.1629 16.4638C28.6711 16.8153 29.3524 16.7761 29.7769 16.3313C30.2959 15.7848 30.2043 14.9118 29.5945 14.4832C27.9938 13.3516 26.0871 12.7421 24.0995 12.728C18.9581 12.7027 14.7281 16.7295 14.4148 21.8056L13.0443 21.7989C12.6357 21.7968 12.3855 22.2553 12.6086 22.6011L15.1473 26.4656C15.3494 26.773 15.8005 26.7752 16.007 26.4698L18.6013 22.6307C18.8336 22.2914 18.59 21.8305 18.1772 21.8242L16.862 21.8219L16.8578 21.8177L16.8536 21.8134Z" fill="black" fill-opacity="0.1"/>
<path d="M73.009 46.2044L74.0883 46.2023C74.4101 46.2017 74.6037 45.8393 74.4253 45.5681L72.3964 42.5385C72.2349 42.2974 71.8796 42.2981 71.7193 42.5398L69.7056 45.5774C69.5253 45.8459 69.7206 46.2076 70.0458 46.2103L71.0849 46.2082C70.8811 49.1417 68.4332 51.4728 65.4465 51.4754C64.2934 51.4776 63.183 51.1346 62.2428 50.4928C61.8399 50.2187 61.3036 50.2533 60.9693 50.6093C60.5681 51.0392 60.6537 51.7262 61.1372 52.0604C62.3998 52.9295 63.8959 53.3958 65.4513 53.3927C69.5006 53.3848 72.7977 50.1938 73.009 46.1977L73.0123 46.2011L73.009 46.2044Z" fill="black" fill-opacity="0.1"/>
<path opacity="0.15" d="M75.8284 7.05859C77.4214 7.05877 78.7129 8.35034 78.7131 9.94336V33.6387C78.7131 35.2319 77.4216 36.5233 75.8284 36.5234H55.8098V33.873C55.8098 32.2798 54.5182 30.9885 52.925 30.9883H35.1711V9.94336C35.1714 8.35034 36.4629 7.05878 38.0559 7.05859H75.8284Z" fill="#C3A5FF"/>
<path opacity="0.35" d="M53.0736 31.1493H4.01121C2.41329 31.1493 1.11792 32.4333 1.11792 34.0171V65.0704C1.11792 66.6542 2.41329 67.9382 4.01121 67.9382H53.0736C54.6715 67.9382 55.9668 66.6542 55.9668 65.0704V34.0171C55.9668 32.4333 54.6715 31.1493 53.0736 31.1493Z" fill="#C3A5FF"/>
<path d="M55.5895 30.9383C44.4421 30.9383 35.4009 30.4009 35.4009 29.7353C35.4009 29.0696 44.4408 28.5322 55.5895 28.5322C66.7383 28.5322 75.7782 29.0696 75.7782 29.7353C75.7782 30.4009 66.7383 30.9383 55.5895 30.9383Z" fill="url(#paint0_radial_23223_815)"/>
<path d="M45.4675 19.0002C45.4675 19.0002 42.2103 19.6036 39.8474 20.6262C39.0547 20.9692 38.5288 21.767 38.5643 22.1761L38.84 25.6378C38.9315 26.5995 39.7445 27.335 40.7112 27.335L71.9381 26.348C72.9252 25.7954 73.2987 24.7524 73.2987 23.6281L72.3065 20.5602C72.3065 19.4918 71.9025 18.4692 71.1759 17.6866L68.9261 15.1967C68.813 15.0735 68.7825 14.9007 68.8448 14.7419C68.9362 14.512 69.0391 14.1893 68.9057 14.1181C68.2312 13.7548 67.131 13.7802 66.3434 13.7802H55.4462C54.045 13.7802 53.1964 13.7904 52.1636 14.3633C50.6188 15.2272 48.0349 17.9915 45.4599 19.0014H45.47H45.465L45.4675 19.0002Z" fill="url(#paint1_linear_23223_815)"/>
<path d="M40.0616 26.2867C40.0616 28.1732 41.2482 29.6926 42.7154 29.6926H44.5054V22.8758H42.7154C41.2533 22.8758 40.0616 24.404 40.0616 26.2816V26.2867Z" fill="black"/>
<path d="M44.5093 29.6875C43.0471 29.6875 41.8555 28.1592 41.8555 26.2816C41.8555 24.404 43.042 22.8758 44.5093 22.8758C45.9765 22.8758 47.1631 24.4053 47.1631 26.2816C47.1631 28.158 45.9765 29.6875 44.5093 29.6875Z" fill="url(#paint2_linear_23223_815)"/>
<path d="M48.1962 26.2867C48.1962 28.1732 49.3827 29.6926 50.85 29.6926H52.6399V22.8758H50.85C49.3878 22.8758 48.1962 24.404 48.1962 26.2816V26.2867Z" fill="black"/>
<path d="M64.9674 26.2867C64.9674 28.1732 66.1539 29.6926 67.6212 29.6926H69.4111V22.8758H67.6212C66.159 22.8758 64.9674 24.404 64.9674 26.2816V26.2867Z" fill="black"/>
<path d="M45.4643 19.0016C48.2985 17.9917 50.5775 15.2642 52.1884 14.3483C53.3292 13.7398 54.489 13.7804 55.8902 13.7804H62.0261C61.1876 13.7804 59.587 13.8007 58.9836 14.2352L55.1991 19.0054C55.1991 19.0054 50.669 20.0992 48.2299 21.5932C47.7853 21.8638 47.596 22.1864 47.5757 22.6819L47.8666 26.451C47.8666 26.451 47.831 27.3403 48.8384 27.3403H40.7233C39.7566 27.3403 38.9486 26.6035 38.8521 25.6431C38.8521 25.6431 38.612 22.6717 38.5764 22.1813C38.5408 21.691 39.2306 20.8627 40.2126 20.4841C42.667 19.5479 45.4745 19.0016 45.4745 19.0016H45.4643Z" fill="url(#paint3_linear_23223_815)"/>
<path d="M69.0761 17.4758C69.0761 17.4758 67.8642 15.6808 67.445 15.2667C67.0258 14.8525 66.3563 14.5565 65.4861 14.4536C63.4713 14.2237 52.7278 14.2237 52.7278 14.2237C52.5588 14.2237 52.3899 14.2542 52.2374 14.3266C50.6673 15.0532 45.4677 18.9952 45.4677 18.9952H62.6227L68.615 18.5455C69.1473 18.5099 69.4128 17.8912 69.0799 17.4771H69.0749L69.0761 17.4758Z" fill="black"/>
<path d="M73.3011 21.6267C73.3011 20.2153 72.187 19.5408 72.187 19.5408L70.0287 20.1391L56.3303 20.5126C56.3303 20.5126 51.6414 20.5583 48.4451 21.4793C47.923 21.6331 47.566 22.1183 47.566 22.6659L47.8671 26.5824C47.9027 27.0016 48.2559 27.3192 48.6751 27.3192L67.3647 27.0944L71.9406 26.3321C72.9276 25.7795 73.3011 25.6271 73.3011 24.4965V21.628V21.6267Z" fill="url(#paint4_linear_23223_815)"/>
<path d="M66.7845 25.9073C66.7845 25.9073 66.6156 27.0532 65.5828 27.104L65.7263 27.4572L66.8404 27.0887L66.9535 25.9632L66.7794 25.9022L66.7845 25.9073Z" fill="black"/>
<path d="M54.2624 18.9939H45.4677C45.4677 18.9939 50.0181 15.2095 52.2628 14.3152C52.4369 14.2288 52.6719 14.2237 52.8663 14.2237C54.9725 14.2237 57.0026 14.2389 58.9412 14.2593C57.2071 15.1485 55.6179 17.0719 54.2573 18.9939H54.2624Z" fill="url(#paint5_linear_23223_815)"/>
<path d="M69.4145 29.6875C67.9523 29.6875 66.7607 28.1592 66.7607 26.2816C66.7607 24.404 67.9473 22.8758 69.4145 22.8758C70.8818 22.8758 72.0683 24.4053 72.0683 26.2816C72.0683 28.158 70.8818 29.6875 69.4145 29.6875Z" fill="url(#paint6_linear_23223_815)"/>
<path d="M69.4776 28.411C68.6341 28.411 67.9481 27.4544 67.9481 26.2742C67.9481 25.094 68.6329 24.1362 69.4776 24.1362C70.3224 24.1362 71.0072 25.0928 71.0072 26.2742C71.0072 27.4556 70.3224 28.411 69.4776 28.411Z" fill="url(#paint7_linear_23223_815)"/>
<path d="M69.4816 27.5338C68.9862 27.5338 68.5873 26.9711 68.5873 26.2813C68.5873 25.5915 68.9862 25.0287 69.4816 25.0287C69.9771 25.0287 70.376 25.5915 70.376 26.2813C70.376 26.9711 69.9771 27.5338 69.4816 27.5338Z" fill="url(#paint8_linear_23223_815)"/>
<path d="M52.6468 29.6875C51.1846 29.6875 49.993 28.1592 49.993 26.2816C49.993 24.404 51.1796 22.8758 52.6468 22.8758C54.1141 22.8758 55.3006 24.4053 55.3006 26.2816C55.3006 28.158 54.1141 29.6875 52.6468 29.6875Z" fill="url(#paint9_linear_23223_815)"/>
<path d="M52.7362 28.411C51.8927 28.411 51.2067 27.4544 51.2067 26.2742C51.2067 25.094 51.8914 24.1362 52.7362 24.1362C53.581 24.1362 54.2644 25.0928 54.2644 26.2742C54.2644 27.4556 53.5797 28.411 52.7362 28.411Z" fill="url(#paint10_linear_23223_815)"/>
<path d="M52.7388 27.5338C52.2434 27.5338 51.8445 26.9711 51.8445 26.2813C51.8445 25.5915 52.2434 25.0287 52.7388 25.0287C53.2343 25.0287 53.6332 25.5915 53.6332 26.2813C53.6332 26.9711 53.2343 27.5338 52.7388 27.5338Z" fill="url(#paint11_linear_23223_815)"/>
<path d="M48.9687 21.3564C48.9687 21.3564 44.638 21.5609 42.0858 21.5304C39.5337 21.4999 39.0484 21.1976 39.0484 21.1976C39.0484 21.1976 38.5364 21.6727 38.5682 22.1745L38.6038 22.5734C38.6038 22.5734 38.9772 22.7932 39.6721 22.8338C40.0456 22.8541 40.367 22.8287 40.5932 22.5327C40.7062 22.3892 41.0429 21.9395 41.0429 21.9395C41.0429 21.9395 42.2446 21.9954 43.8859 21.9191C43.8859 21.9191 44.3712 22.6661 44.7803 22.8605C45.0255 22.9735 46.7849 22.9113 47.6081 22.7843C48.6714 22.6153 48.9636 21.3576 48.9636 21.3576H48.9687V21.3564Z" fill="#939393"/>
<path d="M55.8783 19.3802H57.6581C57.9909 19.3802 58.2717 19.0791 58.2717 18.7056C58.2717 18.3321 58.0011 18.0311 57.6581 18.0311H57.0852C56.7841 18.0311 56.497 18.1594 56.2721 18.3791L55.3409 19.3815H55.8783V19.3802Z" fill="url(#paint12_linear_23223_815)"/>
<path d="M45.1888 22.3454C46.421 22.3454 47.873 22.2323 47.9404 22.2273C48.0534 22.2069 48.1347 22.099 48.1144 21.9872C48.0941 21.8741 47.9912 21.7928 47.8794 21.8131C47.8642 21.8131 46.2381 21.9516 45.0058 21.9262C44.8928 21.9262 44.7962 22.0176 44.7911 22.1307C44.7911 22.2438 44.8826 22.3403 44.9957 22.3454H45.1951H45.19H45.1888Z" fill="url(#paint13_linear_23223_815)"/>
<path d="M40.2914 22.2867C40.3943 22.2867 40.4857 22.2105 40.4959 22.1025C40.5112 21.9895 40.4298 21.8827 40.3117 21.8726C40.3015 21.8726 39.3704 21.8421 38.772 21.5347C38.6958 21.6376 38.6132 21.8053 38.5929 21.9183C39.2979 22.2918 40.219 22.2816 40.2596 22.2867H40.2901H40.2914Z" fill="url(#paint14_linear_23223_815)"/>
<path d="M53.6479 20.9151H53.9604C54.0633 20.9151 54.1395 20.9964 54.1395 21.0993C54.1395 21.2022 54.0582 21.2835 53.9604 21.2835H53.6479C53.5462 21.2835 53.4688 21.2022 53.4688 21.0993C53.4688 20.9964 53.5501 20.9151 53.6479 20.9151Z" fill="url(#paint15_linear_23223_815)"/>
<path d="M71.563 18.1622C71.563 18.1622 68.0708 17.7836 71.8183 19.3995L72.1817 19.5482C72.1817 19.5482 71.9517 18.6487 71.563 18.1622Z" fill="url(#paint16_linear_23223_815)"/>
<path d="M28.5972 60.4201C14.9007 60.4201 3.79749 59.8199 3.79749 59.0795C3.79749 58.3392 14.9007 57.739 28.5972 57.739C42.2937 57.739 53.3969 58.3392 53.3969 59.0795C53.3969 59.8199 42.2937 60.4201 28.5972 60.4201Z" fill="url(#paint17_radial_23223_815)"/>
<path d="M7.41232 54.859C7.41232 57.2787 8.90701 59.2425 10.7435 59.2425H12.9956V50.4755H10.7435C8.9003 50.4755 7.41232 52.4394 7.41232 54.859Z" fill="black"/>
<path d="M12.9918 59.2425C11.1486 59.2425 9.6606 57.2787 9.6606 54.859C9.6606 52.4394 11.1553 50.4755 12.9918 50.4755C14.8283 50.4755 16.323 52.4394 16.323 54.859C16.323 57.2787 14.8283 59.2425 12.9918 59.2425Z" fill="url(#paint18_linear_23223_815)"/>
<path d="M17.6257 54.859C17.6257 57.2787 19.1204 59.2425 20.9569 59.2425H23.209V50.4755H20.9569C19.1137 50.4755 17.6257 52.4394 17.6257 54.859Z" fill="black"/>
<path d="M39.263 54.859C39.263 57.2787 40.7577 59.2425 42.5942 59.2425H44.8463V50.4755H42.5942C40.751 50.4755 39.263 52.4394 39.263 54.859Z" fill="black"/>
<path d="M16.037 46.285C16.037 46.285 10.1119 47.0625 7.14259 48.3762C6.15061 48.8186 5.48034 49.8441 5.53397 50.3669L5.8825 54.0198C6.00315 55.2531 7.01525 56.1982 8.23513 56.1982H47.2913L48.042 55.6284L50.3544 54.6566C51.038 54.3684 51.534 53.745 51.6078 52.9943C51.7418 51.6002 51.6681 48.4298 51.3598 46.5464C51.3531 46.4861 51.3397 46.4258 51.3263 46.3654C51.2458 45.9164 50.9375 45.5477 50.5219 45.3801C46.2524 43.6308 44.2483 40.2996 36.9961 40.2996H28.4234C24.0332 40.2996 16.037 46.285 16.037 46.285Z" fill="url(#paint19_linear_23223_815)"/>
<path d="M17.9488 49.4962C21.9569 48.3098 27.8485 48.2562 27.8485 48.2562H44.5716C45.8182 48.2562 47.0515 48.0484 48.2312 47.6396L51.368 46.5471C51.6763 48.397 51.8707 51.3729 51.5557 53.4709C51.4887 53.9333 51.1803 54.3221 50.7581 54.4964L48.1374 55.5956C48.1709 55.3543 48.191 55.113 48.191 54.865C48.191 52.4454 46.6963 50.4815 44.8598 50.4815C43.0233 50.4815 41.5286 52.4454 41.5286 54.865C41.5286 55.3342 41.5889 55.7833 41.6894 56.2055H26.4008C26.5013 55.7833 26.5616 55.3342 26.5616 54.865C26.5616 52.4454 25.0669 50.4815 23.2304 50.4815C21.3939 50.4815 19.8992 52.4454 19.8992 54.865C19.8992 55.3342 19.9595 55.7833 20.0601 56.2055H17.3187L16.8495 51.0244C16.8495 50.3206 17.2986 49.6973 17.9555 49.5029L17.9488 49.4962Z" fill="url(#paint20_linear_23223_815)"/>
<path d="M16.0391 46.285C16.0391 46.285 23.7739 40.2996 28.6266 40.2996H35.4565C33.7474 40.2996 32.3398 40.9028 31.6025 41.6133L28.2512 46.2783C28.2512 46.2783 20.7242 47.6858 17.6611 49.6095C17.0981 49.9647 16.8635 50.3736 16.8367 51.0103L17.1986 55.052C17.1986 55.052 17.1584 56.1915 18.4252 56.1915H8.23051C7.01733 56.1915 5.99853 55.2464 5.87789 54.0131C5.87789 54.0131 5.57627 50.9969 5.52935 50.3669C5.48243 49.7368 6.35378 48.6711 7.58706 48.1885C10.6636 46.9888 16.0324 46.285 16.0324 46.285H16.0391Z" fill="url(#paint21_linear_23223_815)"/>
<path d="M27.0834 46.298H42.8547C43.659 46.298 44.4633 46.1572 45.2207 45.8891L47.0706 45.2255C47.2918 45.1451 47.3387 44.8502 47.1578 44.7027C46.1256 43.8381 43.2367 41.8876 40.1736 41.2174C37.9953 40.7415 36.6481 40.8487 34.2284 40.8487C31.8021 41.586 29.3288 43.6772 27.0767 46.298H27.0834Z" fill="black"/>
<path d="M35.0465 48.2466H33.4848V48.7091C33.4848 48.9303 33.6591 49.1046 33.8736 49.1046H34.6578C34.8722 49.1046 35.0465 48.9236 35.0465 48.7091V48.2466Z" fill="url(#paint22_linear_23223_815)"/>
<path d="M34.9515 48.2466H33.5842V48.4611C33.5842 48.555 33.6579 48.6287 33.7451 48.6287H34.784C34.8778 48.6287 34.9448 48.555 34.9448 48.4611V48.2466H34.9515Z" fill="url(#paint23_linear_23223_815)"/>
<path d="M42.8524 48.2466H41.2907V48.7091C41.2907 48.9303 41.465 49.1046 41.6795 49.1046H42.4637C42.6781 49.1046 42.8524 48.9236 42.8524 48.7091V48.2466Z" fill="url(#paint24_linear_23223_815)"/>
<path d="M42.7598 48.2466H41.3924V48.4611C41.3924 48.555 41.4662 48.6287 41.5533 48.6287H42.5922C42.686 48.6287 42.7531 48.555 42.7531 48.4611V48.2466H42.7598Z" fill="url(#paint25_linear_23223_815)"/>
<path d="M36.9277 56.2086H37.0618V48.9095C37.0618 48.4738 37.0081 48.0382 36.9143 47.6159L36.606 46.2955H36.4719L36.787 47.6427C36.8808 48.0583 36.9344 48.4805 36.9344 48.9028V56.2019L36.9277 56.2086Z" fill="url(#paint26_linear_23223_815)"/>
<path d="M28.8473 46.5766H31.0391C31.4547 46.5766 31.7898 46.2348 31.7898 45.8058C31.7898 45.3769 31.4547 45.035 31.0391 45.035H30.2616C29.9332 45.035 29.6181 45.149 29.3634 45.3635L28.2508 46.2884L28.8473 46.5699V46.5766Z" fill="url(#paint27_linear_23223_815)"/>
<path d="M18.5912 49.328C18.5912 49.328 13.1487 49.5894 9.95153 49.5491C6.74768 49.5089 6.13774 49.1202 6.13774 49.1202C6.13774 49.1202 5.50099 49.7301 5.53451 50.3803L5.58143 50.8897C5.58143 50.8897 6.05061 51.1712 6.92195 51.2248C7.39114 51.2516 7.79329 51.2181 8.0815 50.836C8.22226 50.6551 8.65123 50.0787 8.65123 50.0787C8.65123 50.0787 10.166 50.1524 12.217 50.0518C12.217 50.0518 12.827 51.017 13.3498 51.265C13.6581 51.4125 15.8699 51.332 16.9021 51.1645C18.2427 50.9433 18.6046 49.328 18.6046 49.328H18.5912Z" fill="#939393"/>
<path d="M23.2152 59.2425C21.372 59.2425 19.884 57.2787 19.884 54.859C19.884 52.4394 21.3787 50.4755 23.2152 50.4755C25.0517 50.4755 26.5464 52.4394 26.5464 54.859C26.5464 57.2787 25.0517 59.2425 23.2152 59.2425Z" fill="url(#paint28_linear_23223_815)"/>
<path d="M27.086 46.301H16.0401C19.1166 43.8344 22.6757 41.8505 25.7388 40.8384L34.2377 40.8518C31.8381 41.5757 29.4587 43.687 27.086 46.301Z" fill="url(#paint29_linear_23223_815)"/>
<path d="M44.8519 59.2425C43.0087 59.2425 41.5207 57.2787 41.5207 54.859C41.5207 52.4394 43.0154 50.4755 44.8519 50.4755C46.6884 50.4755 48.1831 52.4394 48.1831 54.859C48.1831 57.2787 46.6884 59.2425 44.8519 59.2425Z" fill="url(#paint30_linear_23223_815)"/>
<path d="M44.9648 57.6127C43.9058 57.6127 43.0478 56.3862 43.0478 54.8714C43.0478 53.3566 43.9058 52.13 44.9648 52.13C46.0238 52.13 46.8817 53.3566 46.8817 54.8714C46.8817 56.3862 46.0238 57.6127 44.9648 57.6127Z" fill="url(#paint31_linear_23223_815)"/>
<path d="M44.9628 56.47C44.3395 56.47 43.8368 55.7461 43.8368 54.8614C43.8368 53.9766 44.3395 53.2527 44.9628 53.2527C45.5862 53.2527 46.0889 53.9766 46.0889 54.8614C46.0889 55.7461 45.5862 56.47 44.9628 56.47Z" fill="url(#paint32_linear_23223_815)"/>
<path d="M23.3357 57.6127C22.2767 57.6127 21.4188 56.3862 21.4188 54.8714C21.4188 53.3566 22.2767 52.13 23.3357 52.13C24.3948 52.13 25.2527 53.3566 25.2527 54.8714C25.2527 56.3862 24.3948 57.6127 23.3357 57.6127Z" fill="url(#paint33_linear_23223_815)"/>
<path d="M23.3375 56.47C22.7141 56.47 22.2114 55.7461 22.2114 54.8614C22.2114 53.9766 22.7141 53.2527 23.3375 53.2527C23.9608 53.2527 24.4635 53.9766 24.4635 54.8614C24.4635 55.7461 23.9608 56.47 23.3375 56.47Z" fill="url(#paint34_linear_23223_815)"/>
<path d="M13.8514 50.5986C15.3997 50.5986 17.2228 50.4578 17.3032 50.4444C17.444 50.4243 17.5445 50.2836 17.5244 50.1361C17.5043 49.9886 17.3703 49.8881 17.2228 49.9149C17.2027 49.9149 15.1584 50.0959 13.6101 50.0624C13.4693 50.0624 13.342 50.1763 13.342 50.3238C13.342 50.4712 13.4559 50.5919 13.5967 50.5986C13.6771 50.5986 13.7642 50.5986 13.8447 50.5986H13.8514Z" fill="white"/>
<path d="M7.69125 50.5098C7.8186 50.5098 7.93254 50.4092 7.95265 50.2752C7.97276 50.1277 7.86552 49.9937 7.72476 49.9736C7.71136 49.9736 6.5384 49.9334 5.79441 49.5379C5.69387 49.672 5.59333 49.8931 5.56652 50.0272C6.45797 50.5031 7.61081 50.4964 7.66444 50.5031C7.67784 50.5031 7.68455 50.5031 7.69795 50.5031L7.69125 50.5098Z" fill="white"/>
<path d="M51.1214 45.8492L50.5717 46.8278C50.5717 46.8278 50.5583 47.3908 51.4967 47.4043L51.4163 46.4793C51.4163 46.4793 51.3559 46.1039 51.1214 45.8492Z" fill="url(#paint35_linear_23223_815)"/>
<path d="M25.5624 48.7095H25.9377C26.0584 48.7095 26.1589 48.8101 26.1589 48.9307C26.1589 49.0514 26.0584 49.1519 25.9377 49.1519H25.5624C25.4418 49.1519 25.3412 49.0514 25.3412 48.9307C25.3412 48.8101 25.4418 48.7095 25.5624 48.7095Z" fill="url(#paint36_linear_23223_815)"/>
<defs>
<radialGradient id="paint0_radial_23223_815" cx="0" cy="0" r="1" gradientUnits="userSpaceOnUse" gradientTransform="translate(57.7467 30.0656) rotate(179.386) scale(17.7861 1.10959)">
<stop/>
<stop offset="1" stop-color="#414042" stop-opacity="0"/>
</radialGradient>
<linearGradient id="paint1_linear_23223_815" x1="50.1043" y1="16.3591" x2="56.5171" y2="22.8468" gradientUnits="userSpaceOnUse">
<stop stop-color="#F1F2F2"/>
<stop offset="1" stop-color="#E6E7E8"/>
</linearGradient>
<linearGradient id="paint2_linear_23223_815" x1="44.5093" y1="23.342" x2="44.5093" y2="29.8869" gradientUnits="userSpaceOnUse">
<stop stop-color="#414042"/>
<stop offset="1"/>
</linearGradient>
<linearGradient id="paint3_linear_23223_815" x1="50.293" y1="14.8602" x2="50.3285" y2="27.4241" gradientUnits="userSpaceOnUse">
<stop stop-color="#E8E9EA"/>
<stop offset="0.51" stop-color="white"/>
<stop offset="0.53" stop-color="#F6F6F6"/>
<stop offset="0.61" stop-color="#DCDDDE"/>
<stop offset="0.69" stop-color="#CACBCD"/>
<stop offset="0.78" stop-color="#BFC1C3"/>
<stop offset="0.88" stop-color="#BCBEC0"/>
<stop offset="1" stop-color="#828282"/>
</linearGradient>
<linearGradient id="paint4_linear_23223_815" x1="60.3739" y1="19.8215" x2="60.5581" y2="26.9241" gradientUnits="userSpaceOnUse">
<stop stop-color="#E6E7E8"/>
<stop offset="0.3" stop-color="#A8A7AA"/>
<stop offset="0.76" stop-color="#BCBEC0"/>
<stop offset="1" stop-color="#828282"/>
</linearGradient>
<linearGradient id="paint5_linear_23223_815" x1="48.2167" y1="12.4769" x2="57.2325" y2="21.8599" gradientUnits="userSpaceOnUse">
<stop offset="0.14" stop-color="#414042"/>
<stop offset="0.34" stop-color="#6D6E71"/>
<stop offset="1"/>
</linearGradient>
<linearGradient id="paint6_linear_23223_815" x1="66.7607" y1="26.2816" x2="72.0683" y2="26.2816" gradientUnits="userSpaceOnUse">
<stop stop-color="#414042"/>
<stop offset="1"/>
</linearGradient>
<linearGradient id="paint7_linear_23223_815" x1="69.4776" y1="23.9266" x2="69.4776" y2="28.5139" gradientUnits="userSpaceOnUse">
<stop stop-color="#606060"/>
<stop offset="1" stop-color="#E6E7E8"/>
</linearGradient>
<linearGradient id="paint8_linear_23223_815" x1="69.4575" y1="25.0592" x2="69.5337" y2="29.0278" gradientUnits="userSpaceOnUse">
<stop stop-color="#606060"/>
<stop offset="1" stop-color="#E6E7E8"/>
</linearGradient>
<linearGradient id="paint9_linear_23223_815" x1="49.993" y1="26.2816" x2="55.3006" y2="26.2816" gradientUnits="userSpaceOnUse">
<stop stop-color="#414042"/>
<stop offset="1"/>
</linearGradient>
<linearGradient id="paint10_linear_23223_815" x1="54.2695" y1="26.2742" x2="51.2067" y2="26.2742" gradientUnits="userSpaceOnUse">
<stop stop-color="#606060"/>
<stop offset="1" stop-color="#E6E7E8"/>
</linearGradient>
<linearGradient id="paint11_linear_23223_815" x1="52.7147" y1="25.0592" x2="52.796" y2="29.0278" gradientUnits="userSpaceOnUse">
<stop stop-color="#606060"/>
<stop offset="1" stop-color="#E6E7E8"/>
</linearGradient>
<linearGradient id="paint12_linear_23223_815" x1="58.7011" y1="18.8492" x2="55.0348" y2="18.6091" gradientUnits="userSpaceOnUse">
<stop stop-color="#DBDCDD"/>
<stop offset="1" stop-color="#E6E7E8"/>
</linearGradient>
<linearGradient id="paint13_linear_23223_815" x1="48.117" y1="22.0774" x2="44.7899" y2="22.0774" gradientUnits="userSpaceOnUse">
<stop stop-color="#939393"/>
<stop offset="0.1" stop-color="#A3A3A3"/>
<stop offset="0.38" stop-color="#CBCBCB"/>
<stop offset="0.62" stop-color="#E7E7E7"/>
<stop offset="0.84" stop-color="#F8F8F8"/>
<stop offset="1" stop-color="white"/>
</linearGradient>
<linearGradient id="paint14_linear_23223_815" x1="38.5967" y1="21.4826" x2="39.1544" y2="21.7481" gradientUnits="userSpaceOnUse">
<stop stop-color="#606060"/>
<stop offset="1" stop-color="#E6E7E8"/>
</linearGradient>
<linearGradient id="paint15_linear_23223_815" x1="53.8029" y1="21.2937" x2="53.8029" y2="20.9253" gradientUnits="userSpaceOnUse">
<stop stop-color="#FB7674"/>
<stop offset="0.03" stop-color="#FA7976"/>
<stop offset="0.33" stop-color="#F98989"/>
<stop offset="0.65" stop-color="#F89395"/>
<stop offset="1" stop-color="#F79899"/>
</linearGradient>
<linearGradient id="paint16_linear_23223_815" x1="71.0078" y1="19.0438" x2="71.3" y2="18.7529" gradientUnits="userSpaceOnUse">
<stop stop-color="#FB7674"/>
<stop offset="0.03" stop-color="#FA7976"/>
<stop offset="0.33" stop-color="#F98989"/>
<stop offset="0.65" stop-color="#F89395"/>
<stop offset="1" stop-color="#F79899"/>
</linearGradient>
<radialGradient id="paint17_radial_23223_815" cx="0" cy="0" r="1" gradientUnits="userSpaceOnUse" gradientTransform="translate(28.5968 59.08) rotate(180) scale(24.5184 1.35524)">
<stop/>
<stop offset="1" stop-color="#414042" stop-opacity="0"/>
</radialGradient>
<linearGradient id="paint18_linear_23223_815" x1="12.9918" y1="51.0922" x2="12.9918" y2="59.504" gradientUnits="userSpaceOnUse">
<stop stop-color="#414042"/>
<stop offset="1"/>
</linearGradient>
<linearGradient id="paint19_linear_23223_815" x1="20.6484" y1="42.5583" x2="29.2277" y2="51.0305" gradientUnits="userSpaceOnUse">
<stop stop-color="#F1F2F2"/>
<stop offset="1" stop-color="#E6E7E8"/>
</linearGradient>
<linearGradient id="paint20_linear_23223_815" x1="34.2763" y1="56.1385" x2="34.2763" y2="46.9626" gradientUnits="userSpaceOnUse">
<stop stop-color="#828282"/>
<stop offset="0.3" stop-color="#BCBEC0"/>
<stop offset="0.7" stop-color="#A8A7AA"/>
<stop offset="1" stop-color="#E6E7E8"/>
</linearGradient>
<linearGradient id="paint21_linear_23223_815" x1="20.4829" y1="41.5731" x2="20.5231" y2="56.2987" gradientUnits="userSpaceOnUse">
<stop stop-color="#E8E9EA"/>
<stop offset="0.51" stop-color="white"/>
<stop offset="0.53" stop-color="#F6F6F6"/>
<stop offset="0.61" stop-color="#DCDDDE"/>
<stop offset="0.69" stop-color="#CACBCD"/>
<stop offset="0.78" stop-color="#BFC1C3"/>
<stop offset="0.88" stop-color="#BCBEC0"/>
<stop offset="1" stop-color="#828282"/>
</linearGradient>
<linearGradient id="paint22_linear_23223_815" x1="34.269" y1="48.1327" x2="34.269" y2="48.9102" gradientUnits="userSpaceOnUse">
<stop stop-color="#DDDFE0"/>
<stop offset="1" stop-color="#A7A9AC"/>
</linearGradient>
<linearGradient id="paint23_linear_23223_815" x1="35.1593" y1="48.4879" x2="33.3965" y2="48.374" gradientUnits="userSpaceOnUse">
<stop stop-color="#E6E7E8"/>
<stop offset="1" stop-color="#E6E7E8"/>
</linearGradient>
<linearGradient id="paint24_linear_23223_815" x1="42.0749" y1="1066.07" x2="42.0749" y2="1066.07" gradientUnits="userSpaceOnUse">
<stop stop-color="#DDDFE0"/>
<stop offset="1" stop-color="#A7A9AC"/>
</linearGradient>
<linearGradient id="paint25_linear_23223_815" x1="42.9675" y1="48.4879" x2="41.2048" y2="48.374" gradientUnits="userSpaceOnUse">
<stop stop-color="#E6E7E8"/>
<stop offset="1" stop-color="#E6E7E8"/>
</linearGradient>
<linearGradient id="paint26_linear_23223_815" x1="36.7601" y1="64.3724" x2="36.7601" y2="42.361" gradientUnits="userSpaceOnUse">
<stop stop-color="#606060"/>
<stop offset="1" stop-color="#E6E7E8"/>
</linearGradient>
<linearGradient id="paint27_linear_23223_815" x1="32.3126" y1="45.96" x2="27.8487" y2="45.6785" gradientUnits="userSpaceOnUse">
<stop stop-color="#DBDCDD"/>
<stop offset="1" stop-color="#E6E7E8"/>
</linearGradient>
<linearGradient id="paint28_linear_23223_815" x1="23.2152" y1="59.2023" x2="23.2152" y2="50.6565" gradientUnits="userSpaceOnUse">
<stop stop-color="#414042"/>
<stop offset="1"/>
</linearGradient>
<linearGradient id="paint29_linear_23223_815" x1="23.2253" y1="40.2217" x2="27.6289" y2="47.923" gradientUnits="userSpaceOnUse">
<stop offset="0.14" stop-color="#414042"/>
<stop offset="0.34" stop-color="#6D6E71"/>
<stop offset="1"/>
</linearGradient>
<linearGradient id="paint30_linear_23223_815" x1="44.8519" y1="59.209" x2="44.8519" y2="50.6163" gradientUnits="userSpaceOnUse">
<stop stop-color="#414042"/>
<stop offset="1"/>
</linearGradient>
<linearGradient id="paint31_linear_23223_815" x1="44.2543" y1="52.2104" x2="45.5345" y2="56.9693" gradientUnits="userSpaceOnUse">
<stop stop-color="#606060"/>
<stop offset="1" stop-color="#E6E7E8"/>
</linearGradient>
<linearGradient id="paint32_linear_23223_815" x1="44.5473" y1="53.3064" x2="45.298" y2="56.0947" gradientUnits="userSpaceOnUse">
<stop stop-color="#606060"/>
<stop offset="1" stop-color="#E6E7E8"/>
</linearGradient>
<linearGradient id="paint33_linear_23223_815" x1="22.6186" y1="52.2104" x2="23.8988" y2="56.9693" gradientUnits="userSpaceOnUse">
<stop stop-color="#606060"/>
<stop offset="1" stop-color="#E6E7E8"/>
</linearGradient>
<linearGradient id="paint34_linear_23223_815" x1="22.9152" y1="53.3064" x2="23.6659" y2="56.0947" gradientUnits="userSpaceOnUse">
<stop stop-color="#606060"/>
<stop offset="1" stop-color="#E6E7E8"/>
</linearGradient>
<linearGradient id="paint35_linear_23223_815" x1="51.49" y1="46.6267" x2="50.5717" y2="46.6267" gradientUnits="userSpaceOnUse">
<stop stop-color="#FB7674"/>
<stop offset="0.03" stop-color="#FA7976"/>
<stop offset="0.33" stop-color="#F98989"/>
<stop offset="0.65" stop-color="#F89395"/>
<stop offset="1" stop-color="#F79899"/>
</linearGradient>
<linearGradient id="paint36_linear_23223_815" x1="25.7501" y1="49.1653" x2="25.7501" y2="48.7162" gradientUnits="userSpaceOnUse">
<stop stop-color="#FB7674"/>
<stop offset="0.03" stop-color="#FA7976"/>
<stop offset="0.33" stop-color="#F98989"/>
<stop offset="0.65" stop-color="#F89395"/>
<stop offset="1" stop-color="#F79899"/>
</linearGradient>
</defs>
</svg>
