<svg width="104" height="104" viewBox="0 0 104 104" fill="none" xmlns="http://www.w3.org/2000/svg">
<g clip-path="url(#clip0_1880_6825)">
<path opacity="0.7" d="M65.6673 68.5003L32.2053 86.9343C30.5023 87.8053 27.9413 86.9473 27.2653 85.2703L6.80332 32.8283C6.01032 30.8523 6.80332 28.8763 8.81832 27.8493L43.6323 9.2203C45.3353 8.3493 47.8963 9.2073 48.5723 10.8843L67.6823 63.5213C68.4753 65.4973 67.6823 67.4733 65.6673 68.5003Z" fill="url(#paint0_linear_1880_6825)"/>
<path d="M74.1681 74.9211L33.5171 87.4271C31.4631 87.9991 28.8631 86.4781 28.4991 84.5021L18.0991 22.7131C17.6831 20.3861 19.0091 18.4101 21.4271 17.7471L63.5861 5.31906C65.6401 4.74706 68.2401 6.26806 68.6041 8.24406L77.4961 69.9421C77.9121 72.2691 76.5861 74.2451 74.1681 74.9081V74.9211Z" fill="url(#paint1_linear_1880_6825)"/>
<path d="M80.5387 80.2045L34.9347 87.0035L33.9207 87.7835C30.5017 85.7295 30.0727 84.2085 30.0337 82.8955L28.9417 22.2375C28.8637 19.3255 30.8397 17.1675 33.9207 16.8035L80.5257 10.4205C81.7477 10.2775 83.0217 10.7845 83.9707 11.6165C84.8157 12.3575 85.3747 12.8515 85.3747 12.8515L84.9197 75.4335C84.9847 77.9945 83.2557 79.8925 80.5387 80.2175V80.2045Z" fill="url(#paint2_linear_1880_6825)"/>
<path d="M82.1508 81.578L36.5468 88.377C34.2458 88.65 31.7108 86.596 31.6458 84.425L30.5408 23.039C30.4758 20.478 32.2048 18.58 34.9218 18.255L82.1378 11.794C84.4388 11.521 86.9738 13.575 87.0388 15.746L86.5318 76.794C86.5968 79.355 84.8678 81.253 82.1508 81.578Z" fill="url(#paint3_linear_1880_6825)"/>
<path d="M40.3711 55.843C40.3711 55.843 40.3971 55.882 40.4231 55.882C40.4491 55.882 40.4621 55.856 40.4361 55.83C40.4231 55.804 40.3971 55.791 40.3841 55.791C40.3841 55.791 40.3711 55.817 40.3711 55.843Z" fill="black"/>
<path d="M79.332 48.498C79.332 47.692 78.617 47.081 77.824 47.198L39.903 52.801C39.188 52.905 38.694 53.581 38.798 54.296C38.889 54.946 39.461 55.414 40.098 55.414C40.163 55.414 40.228 55.414 40.293 55.401L78.214 49.798C78.864 49.707 79.332 49.148 79.332 48.498Z" fill="url(#paint4_linear_1880_6825)"/>
<path d="M78.6806 37.6816C78.6806 36.8756 77.9656 36.2646 77.1726 36.3816L39.2516 41.9846C38.5366 42.0886 38.0426 42.7646 38.1466 43.4796C38.2376 44.1296 38.8096 44.5976 39.4466 44.5976C39.5116 44.5976 39.5766 44.5976 39.6416 44.5846L77.5626 38.9816C78.2126 38.8906 78.6806 38.3316 78.6806 37.6816Z" fill="url(#paint5_linear_1880_6825)"/>
<path d="M55.048 62.2492C55.009 61.4822 54.307 60.9102 53.54 61.0142L39.903 63.0292C39.188 63.1332 38.694 63.8092 38.798 64.5242C38.889 65.1742 39.461 65.6422 40.098 65.6422C40.163 65.6422 40.228 65.6422 40.293 65.6292L53.93 63.6142C54.606 63.5102 55.087 62.9252 55.048 62.2492Z" fill="url(#paint6_linear_1880_6825)"/>
<path opacity="0.3" d="M57.223 102.665C83.0714 102.622 104.023 98.9386 104.001 94.4103C104.001 89.9036 83.028 86.2636 57.1797 86.2853C31.3314 86.3286 10.4014 90.0336 10.4014 94.5403C10.4014 99.0686 31.3747 102.709 57.223 102.665Z" fill="url(#paint7_radial_1880_6825)"/>
<g clip-path="url(#clip1_1880_6825)">
<path d="M78.9736 89.0527C89.7458 89.0527 98.4736 80.3249 98.4736 69.5527C98.4736 58.7806 89.7458 50.0527 78.9736 50.0527C68.2015 50.0527 59.4736 58.7806 59.4736 69.5527C59.4736 80.3249 68.2015 89.0527 78.9736 89.0527Z" fill="url(#paint8_linear_1880_6825)"/>
<path d="M76.2092 77.0922C75.8801 77.0922 75.5754 76.9582 75.3439 76.7266L69.9082 71.2422C69.4329 70.7669 69.4329 69.9869 69.9082 69.5238C70.3836 69.0607 71.1636 69.0485 71.6267 69.5238L76.1482 74.0819L85.2279 63.7347C85.6667 63.2229 86.4467 63.1741 86.9464 63.6251C87.4582 64.0638 87.507 64.8438 87.0561 65.3435L77.1111 76.6779C76.8917 76.9338 76.5748 77.0801 76.2336 77.0922C76.2214 77.0922 76.2092 77.0922 76.197 77.0922H76.2092Z" fill="white"/>
</g>
</g>
<defs>
<linearGradient id="paint0_linear_1880_6825" x1="38.1593" y1="75.4813" x2="36.2093" y2="17.1113" gradientUnits="userSpaceOnUse">
<stop stop-color="#D1D3D4"/>
<stop offset="1" stop-color="#F1F2F2"/>
</linearGradient>
<linearGradient id="paint1_linear_1880_6825" x1="42.6691" y1="75.9611" x2="53.7581" y2="11.9101" gradientUnits="userSpaceOnUse">
<stop stop-color="#676767"/>
<stop offset="1" stop-color="#F1F2F2"/>
</linearGradient>
<linearGradient id="paint2_linear_1880_6825" x1="71.0227" y1="14.3465" x2="40.1737" y2="89.6555" gradientUnits="userSpaceOnUse">
<stop stop-color="#6D6E71"/>
<stop offset="1"/>
</linearGradient>
<linearGradient id="paint3_linear_1880_6825" x1="48.8968" y1="78.757" x2="69.7358" y2="16.331" gradientUnits="userSpaceOnUse">
<stop stop-color="#D1D3D4"/>
<stop offset="1" stop-color="#F1F2F2"/>
</linearGradient>
<linearGradient id="paint4_linear_1880_6825" x1="9.62601" y1="51.306" x2="83.947" y2="51.306" gradientUnits="userSpaceOnUse">
<stop stop-color="#606060"/>
<stop offset="1" stop-color="#E6E7E8"/>
</linearGradient>
<linearGradient id="paint5_linear_1880_6825" x1="8.97464" y1="40.4766" x2="83.2956" y2="40.4766" gradientUnits="userSpaceOnUse">
<stop stop-color="#606060"/>
<stop offset="1" stop-color="#E6E7E8"/>
</linearGradient>
<linearGradient id="paint6_linear_1880_6825" x1="27.085" y1="63.3282" x2="56.894" y2="63.3282" gradientUnits="userSpaceOnUse">
<stop stop-color="#606060"/>
<stop offset="1" stop-color="#E6E7E8"/>
</linearGradient>
<radialGradient id="paint7_radial_1880_6825" cx="0" cy="0" r="1" gradientUnits="userSpaceOnUse" gradientTransform="translate(56.697 95.3649) rotate(-0.33) scale(46.41 7.38834)">
<stop stop-color="#848484"/>
<stop offset="1" stop-color="#878787" stop-opacity="0"/>
</radialGradient>
<linearGradient id="paint8_linear_1880_6825" x1="78.9736" y1="88.6733" x2="78.9736" y2="50.2364" gradientUnits="userSpaceOnUse">
<stop stop-color="#60B447"/>
<stop offset="1" stop-color="#BCEA84"/>
</linearGradient>
<clipPath id="clip0_1880_6825">
<rect width="104" height="104" fill="white"/>
</clipPath>
<clipPath id="clip1_1880_6825">
<rect width="39" height="39" fill="white" transform="translate(59.4736 50.0527)"/>
</clipPath>
</defs>
</svg>
