<svg width="20" height="20" viewBox="0 0 20 20" fill="none" xmlns="http://www.w3.org/2000/svg">
<path d="M14.167 9.00375C14.167 8.71567 14.167 8.57167 14.2103 8.44333C14.3363 8.07037 14.6685 7.92563 15.0012 7.77407C15.3753 7.60368 15.5623 7.51849 15.7477 7.5035C15.9581 7.48648 16.1688 7.53182 16.3487 7.63274C16.5871 7.76653 16.7533 8.02078 16.9236 8.22752C17.7097 9.18233 18.1027 9.65983 18.2466 10.1863C18.3627 10.6112 18.3627 11.0555 18.2466 11.4803C18.0368 12.2482 17.3741 12.892 16.8835 13.4878C16.6326 13.7926 16.5071 13.945 16.3487 14.0339C16.1688 14.1348 15.9581 14.1802 15.7477 14.1632C15.5623 14.1482 15.3753 14.063 15.0012 13.8926C14.6685 13.741 14.3363 13.5963 14.2103 13.2233C14.167 13.095 14.167 12.951 14.167 12.6629V9.00375Z" stroke="#121212" stroke-width="1.25"/>
<path d="M5.83366 9.00384C5.83366 8.64117 5.82348 8.31518 5.53025 8.06017C5.4236 7.96742 5.2822 7.90301 4.99942 7.77421C4.62533 7.60382 4.43829 7.51863 4.25296 7.50364C3.69692 7.45867 3.39776 7.83818 3.0771 8.22765C2.29095 9.1825 1.89788 9.65992 1.75404 10.1864C1.63798 10.6113 1.63798 11.0557 1.75404 11.4805C1.96383 12.2484 2.62659 12.8921 3.11717 13.488C3.4264 13.8636 3.7218 14.2063 4.25296 14.1633C4.43829 14.1483 4.62533 14.0631 4.99942 13.8928C5.2822 13.7639 5.4236 13.6995 5.53025 13.6068C5.82348 13.3518 5.83366 13.0258 5.83366 12.6631V9.00384Z" stroke="#121212" stroke-width="1.25"/>
<path d="M4.16699 7.5C4.16699 4.73857 6.77867 2.5 10.0003 2.5C13.222 2.5 15.8337 4.73857 15.8337 7.5" stroke="#141414" stroke-width="1.25" stroke-linecap="square" stroke-linejoin="round"/>
<path d="M15.833 14.168V14.8346C15.833 16.3074 14.3406 17.5013 12.4997 17.5013H10.833" stroke="#141414" stroke-width="1.25" stroke-linecap="round" stroke-linejoin="round"/>
</svg>
