<svg width="24" height="24" viewBox="0 0 24 24" fill="none" xmlns="http://www.w3.org/2000/svg">
<path d="M12.0054 10.1231C12.9654 10.1231 13.7354 9.35309 13.7354 8.39309C13.7354 7.43309 12.9554 6.66309 12.0054 6.66309C11.0554 6.66309 10.2754 7.43309 10.2754 8.39309C10.2754 9.35309 11.0554 10.1231 12.0054 10.1231Z" fill="#36354C"/>
<path d="M12.0058 17.5925C11.8458 17.5925 11.6958 17.5425 11.5558 17.4425C11.4258 17.3425 11.2658 17.2225 11.0858 17.0825C10.5858 16.6825 9.83578 16.0425 9.08578 15.2225C7.17578 13.1425 6.17578 10.9325 6.17578 8.8225C6.17578 8.0525 6.32578 7.3025 6.61578 6.5925C6.90578 5.8825 7.33578 5.2425 7.87578 4.7025C8.41578 4.1625 9.05578 3.7325 9.76578 3.4425C11.1858 2.8525 12.8058 2.8525 14.2258 3.4425C14.9358 3.7325 15.5758 4.1625 16.1158 4.7025C16.6558 5.2425 17.0858 5.8825 17.3758 6.5925C17.6658 7.3025 17.8158 8.0525 17.8158 8.8225C17.8158 10.9725 16.8058 13.1925 14.9058 15.2625C14.1558 16.0725 13.4058 16.7125 12.9058 17.1025C12.7258 17.2425 12.5658 17.3625 12.4358 17.4525C12.3058 17.5425 12.1458 17.5925 11.9958 17.5925H12.0058ZM12.0058 4.5025C11.4358 4.5025 10.8758 4.6125 10.3458 4.8325C9.81578 5.0525 9.34578 5.3625 8.93578 5.7725C8.53578 6.1725 8.21578 6.6425 7.99578 7.1725C7.77578 7.7025 7.66578 8.2525 7.66578 8.8225C7.66578 11.0025 9.03578 12.9525 10.1858 14.2125C10.8658 14.9525 11.5458 15.5425 12.0058 15.9025C12.4558 15.5425 13.1358 14.9725 13.8158 14.2425C14.9658 13.0025 16.3258 11.0525 16.3258 8.8225C16.3258 8.2525 16.2158 7.6925 15.9958 7.1725C15.7758 6.6425 15.4658 6.1725 15.0558 5.7725C14.6558 5.3725 14.1758 5.0525 13.6458 4.8325C13.1158 4.6125 12.5558 4.5025 11.9858 4.5025H12.0058Z" fill="#36354C"/>
<path d="M21.255 21.1827H2.75497C2.52497 21.1827 2.30497 21.0727 2.15497 20.8927C2.01497 20.7027 1.96497 20.4627 2.02497 20.2427L3.67497 14.1127C3.76497 13.7827 4.06497 13.5527 4.39497 13.5527H6.31497C6.72497 13.5527 7.06497 13.8927 7.06497 14.3027C7.06497 14.7127 6.72497 15.0527 6.31497 15.0527H4.96497L3.71497 19.6827H20.255L19.005 15.0527H17.655C17.245 15.0527 16.905 14.7127 16.905 14.3027C16.905 13.8927 17.245 13.5527 17.655 13.5527H19.575C19.915 13.5527 20.215 13.7827 20.295 14.1127L21.945 20.2427C22.005 20.4727 21.955 20.7127 21.815 20.8927C21.675 21.0827 21.455 21.1827 21.215 21.1827H21.255Z" fill="#36354C"/>
</svg>
