<svg width="56" height="56" viewBox="0 0 56 56" fill="none" xmlns="http://www.w3.org/2000/svg">
<g clip-path="url(#clip0_315_3318)">
<path d="M9.34642 34.8608L8.99976 51.9808L14.5064 51.9875L14.8931 35.9608L9.34642 34.8608Z" fill="url(#paint0_linear_315_3318)"/>
<path d="M45.0727 44.6997C44.8394 45.453 44.4661 46.153 43.9661 46.7664C43.8794 46.873 43.7994 46.9797 43.6994 47.073C43.2594 47.5597 42.7394 47.9797 42.1594 48.313V51.9864H14.5061V49.4064L14.8927 35.9597L9.34607 34.8597L9.52607 33.473L9.9194 30.373C9.9594 28.253 10.6327 26.693 11.6527 25.5597L11.6661 25.5397C12.1527 24.993 12.7261 24.5464 13.3527 24.1864C13.7527 23.9464 14.1727 23.753 14.5994 23.5797C14.6061 23.5797 14.6061 23.5797 14.6194 23.5797C14.8594 23.4797 15.1127 23.3997 15.3594 23.3197C15.4194 23.2997 15.4861 23.2797 15.5394 23.2664C15.8794 23.153 16.2127 23.0797 16.5594 23.0064C16.5794 23.0064 16.5861 23.0064 16.5994 23.0064C16.7861 22.9664 16.9661 22.933 17.1527 22.913C18.0261 22.753 18.8861 22.6997 19.6727 22.6797H33.8394C33.9127 22.6797 33.9794 22.6797 34.0527 22.693C34.4127 22.693 34.7927 22.7064 35.1927 22.7397C35.3061 22.7397 35.4194 22.753 35.5327 22.7597C35.7594 22.7864 35.9861 22.813 36.2127 22.8464C39.7061 23.3264 43.5861 25.0664 43.8261 30.0997V30.193C43.8261 30.2664 43.8327 30.3197 43.8327 30.393L43.9194 31.0864L44.8994 38.793L45.3127 42.0597C45.4261 42.9864 45.3394 43.8797 45.0727 44.7264V44.6997Z" fill="url(#paint1_linear_315_3318)"/>
<path d="M35.4926 31.0662L34.9259 46.8728C34.8392 46.8595 34.7392 46.8328 34.6526 46.8195C34.4392 46.7795 34.2392 46.7262 34.0459 46.6728L35.4992 31.0728L35.4926 31.0662Z" fill="url(#paint2_linear_315_3318)"/>
<path d="M25.9788 38.9725L25.0388 40.3192C17.5255 36.5192 15.8988 27.2525 15.5388 23.2592C15.8788 23.1458 16.2122 23.0725 16.5588 22.9992C16.5722 22.9992 16.5855 22.9925 16.5988 22.9925C16.7855 22.9525 16.9655 22.9192 17.1522 22.8992C18.0655 34.5658 25.9788 38.9725 25.9788 38.9725Z" fill="url(#paint3_linear_315_3318)"/>
<path d="M43.9067 46.8398C43.9734 46.7665 44.0267 46.6998 44.0801 46.6265C44.0467 46.6731 44.0134 46.7198 43.9734 46.7665C43.9601 46.7931 43.9334 46.8131 43.9067 46.8398Z" fill="url(#paint4_linear_315_3318)"/>
<path opacity="0.3" d="M11.1155 45.3303C12.1754 45.4001 13.2857 44.1187 13.5885 42.463C13.8913 40.8074 13.2756 39.4055 12.2158 39.3357C11.1559 39.2659 10.0456 40.5473 9.74279 42.203C9.43998 43.8586 10.0557 45.2605 11.1155 45.3303Z" fill="url(#paint5_radial_315_3318)"/>
<path d="M32.2994 35.387C32.4461 37.1137 32.7994 38.1337 32.7994 38.1337L31.1794 38.5337C30.8528 37.707 30.6194 36.8803 30.4728 36.0537C29.5461 31.0137 31.6261 26.0737 33.6661 22.667H33.8394C33.9128 22.667 33.9794 22.667 34.0528 22.6737C34.4194 22.6737 34.7994 22.687 35.1928 22.7203C35.3061 22.727 35.4194 22.7337 35.5328 22.747C32.3328 27.907 32.0461 32.5803 32.2994 35.387Z" fill="url(#paint6_linear_315_3318)"/>
<path d="M29.9738 10.8474C28.3538 13.9074 28.1471 16.314 28.1938 18.0674C28.2804 21.5807 30.0804 22.6474 30.0804 22.6474C30.0804 22.6474 28.3004 22.5674 26.9871 24.8607C24.7738 28.734 21.8738 29.6274 20.9338 28.114C19.9538 26.534 22.5538 22.0007 19.8204 21.994L21.2738 16.4007C21.2738 16.4007 24.1738 6.81403 29.9738 10.8407V10.8474Z" fill="url(#paint7_linear_315_3318)"/>
<path d="M25.4194 16.9196C25.4194 16.9196 24.7728 20.3529 21.1261 21.6862C17.4728 23.0196 15.5327 21.7329 15.3927 15.7462C15.2527 9.75958 17.1394 5.64624 21.0927 5.41958C25.0394 5.19291 30.3194 5.41958 29.8994 11.4596C27.0461 17.1596 25.4327 16.9262 25.4327 16.9262L25.4194 16.9196Z" fill="url(#paint8_linear_315_3318)"/>
<path d="M22.5266 3.99994C21.6799 3.9666 19.4199 4.31327 17.4666 5.79994C16.4266 6.59327 15.8399 7.97994 15.7133 9.03327C15.6133 9.81327 15.6733 10.9933 15.7866 11.0199C15.7866 11.0199 16.1399 8.45994 17.1266 7.89327C17.6133 7.61327 16.4133 9.9666 19.9599 10.0066C22.2266 10.0333 23.7866 8.8066 24.2933 9.41327C24.6133 9.85994 23.7466 10.8066 24.1399 11.9266C24.4466 12.8133 24.5533 13.9399 24.4266 15.2799C24.4066 15.5399 24.9599 15.6599 25.0466 15.1799C25.0666 15.1399 25.0866 15.0933 25.0933 15.0466C25.2066 14.4399 25.5399 12.6999 26.4999 12.6933C26.5666 12.6933 26.6933 12.7133 26.7466 12.7399C27.7999 13.1933 26.3199 15.8799 26.3999 17.3733C26.4999 19.2933 28.1666 19.0066 28.2333 18.8733C28.4666 18.4133 29.6599 13.9866 29.7599 13.5199C29.9599 12.5933 31.7533 4.35327 22.5266 3.99994Z" fill="url(#paint9_linear_315_3318)"/>
<path d="M25.0396 15.3322C25.0396 15.3322 25.3929 12.2988 26.7729 12.6588C27.5596 12.8655 27.2929 17.5388 25.4196 16.9122L25.0462 15.3255L25.0396 15.3322Z" fill="url(#paint10_linear_315_3318)"/>
<path d="M14.8399 35.9795L15.1666 51.9795L14.4532 51.9995L14.8399 35.9795Z" fill="url(#paint11_linear_315_3318)"/>
<path d="M45.5858 44.768C43.5125 50.4413 35.4525 50.2413 30.0791 50.828C28.7125 50.8946 27.3458 50.9146 26.0391 50.888C16.5391 51.0546 17.6125 42.448 24.1125 38.7746C26.0658 37.588 27.7125 37.1413 29.9991 36.248C33.6458 34.8813 39.2058 32.788 42.1191 31.7013C44.4858 30.7746 44.8525 31.448 45.1458 33.7946C45.4591 37.3813 46.5858 41.1146 45.6325 44.6613L45.5925 44.7746L45.5858 44.768Z" fill="url(#paint12_linear_315_3318)"/>
<path d="M45.6131 44.7392C44.5265 48.0592 40.8998 49.4258 37.6398 49.9192C34.2732 50.5392 29.9532 50.9392 26.2998 50.8592C22.6332 50.8925 18.4798 50.3992 19.5932 45.7925C21.2132 40.6858 25.9798 38.8592 30.5732 37.2125C34.4798 35.7658 40.5932 33.4325 43.0998 32.5458C44.8265 31.8258 45.0798 33.3525 45.2932 34.7658C45.6132 38.0058 46.5665 41.4125 45.6598 44.6258L45.6198 44.7392H45.6131Z" fill="url(#paint13_linear_315_3318)"/>
</g>
<defs>
<linearGradient id="paint0_linear_315_3318" x1="10.0131" y1="53.5342" x2="14.5731" y2="29.4408" gradientUnits="userSpaceOnUse">
<stop stop-color="#898989"/>
<stop offset="1" stop-color="#E6E7E8"/>
</linearGradient>
<linearGradient id="paint1_linear_315_3318" x1="27.3527" y1="62.7064" x2="27.3527" y2="12.973" gradientUnits="userSpaceOnUse">
<stop stop-color="#BBBDBF"/>
<stop offset="0.15" stop-color="#C1C3C5"/>
<stop offset="0.41" stop-color="#DEE0E1"/>
<stop offset="1" stop-color="white"/>
</linearGradient>
<linearGradient id="paint2_linear_315_3318" x1="33.8126" y1="54.1662" x2="36.0459" y2="29.5662" gradientUnits="userSpaceOnUse">
<stop stop-color="#666666"/>
<stop offset="1" stop-color="#666666" stop-opacity="0"/>
</linearGradient>
<linearGradient id="paint3_linear_315_3318" x1="20.5722" y1="43.4258" x2="20.8722" y2="23.8258" gradientUnits="userSpaceOnUse">
<stop stop-color="#898989"/>
<stop offset="1" stop-color="#E6E7E8"/>
</linearGradient>
<linearGradient id="paint4_linear_315_3318" x1="43.9867" y1="46.8998" x2="44.0001" y2="46.4931" gradientUnits="userSpaceOnUse">
<stop stop-color="#BBBDBF"/>
<stop offset="0.15" stop-color="#C1C3C5"/>
<stop offset="0.41" stop-color="#DEE0E1"/>
<stop offset="1" stop-color="white"/>
</linearGradient>
<radialGradient id="paint5_radial_315_3318" cx="0" cy="0" r="1" gradientTransform="matrix(-0.54723 2.99983 1.91496 0.137968 11.8557 45.4561)" gradientUnits="userSpaceOnUse">
<stop stop-color="white"/>
<stop offset="1" stop-color="white" stop-opacity="0"/>
</radialGradient>
<linearGradient id="paint6_linear_315_3318" x1="32.6861" y1="41.4803" x2="32.9661" y2="23.4537" gradientUnits="userSpaceOnUse">
<stop stop-color="#898989"/>
<stop offset="1" stop-color="#E6E7E8"/>
</linearGradient>
<linearGradient id="paint7_linear_315_3318" x1="28.5001" y1="17.4995" x2="23.5003" y2="32.6577" gradientUnits="userSpaceOnUse">
<stop stop-color="#8C8C8C"/>
<stop offset="1" stop-color="#E6E7E8"/>
</linearGradient>
<linearGradient id="paint8_linear_315_3318" x1="19.3254" y1="6.80547" x2="29.2349" y2="28.2444" gradientUnits="userSpaceOnUse">
<stop offset="0.02" stop-color="#E6E7E8"/>
<stop offset="1" stop-color="#828383"/>
</linearGradient>
<linearGradient id="paint9_linear_315_3318" x1="21.4806" y1="16.5869" x2="24.5839" y2="3.30268" gradientUnits="userSpaceOnUse">
<stop stop-color="#282828"/>
<stop offset="1" stop-color="#646464"/>
</linearGradient>
<linearGradient id="paint10_linear_315_3318" x1="27.2228" y1="13.4671" x2="25.3045" y2="15.9109" gradientUnits="userSpaceOnUse">
<stop offset="0.02" stop-color="#E6E7E8"/>
<stop offset="1" stop-color="#C4C6C8"/>
</linearGradient>
<linearGradient id="paint11_linear_315_3318" x1="13.2866" y1="53.0595" x2="17.5532" y2="30.4928" gradientUnits="userSpaceOnUse">
<stop stop-color="#666666"/>
<stop offset="1" stop-color="#666666" stop-opacity="0"/>
</linearGradient>
<linearGradient id="paint12_linear_315_3318" x1="30.6991" y1="53.8813" x2="36.8591" y2="21.3146" gradientUnits="userSpaceOnUse">
<stop stop-color="#898989"/>
<stop offset="1" stop-color="#E6E7E8"/>
</linearGradient>
<linearGradient id="paint13_linear_315_3318" x1="30.6465" y1="50.5592" x2="43.7265" y2="14.9858" gradientUnits="userSpaceOnUse">
<stop stop-color="#898989"/>
<stop offset="1" stop-color="#E6E7E8"/>
</linearGradient>
<clipPath id="clip0_315_3318">
<rect width="37.0333" height="48" fill="white" transform="translate(8.99988 4)"/>
</clipPath>
</defs>
</svg>
