<svg width="48" height="48" viewBox="0 0 48 48" fill="none" xmlns="http://www.w3.org/2000/svg">
<path opacity="0.2" d="M23.4002 45C34.0041 45 42.6002 44.3284 42.6002 43.5C42.6002 42.6716 34.0041 42 23.4002 42C12.7963 42 4.2002 42.6716 4.2002 43.5C4.2002 44.3284 12.7963 45 23.4002 45Z" fill="url(#paint0_radial_2915_8495)"/>
<g clip-path="url(#clip0_2915_8495)">
<path d="M10.6677 8.24609H27.5342C30.1106 8.24609 32.202 10.3375 32.202 12.9138V40.3153C32.202 41.906 30.9086 43.1994 29.3179 43.1994H8.88409C7.29341 43.1994 6 41.906 6 40.3153V12.9138C6 10.3375 8.09136 8.24609 10.6677 8.24609Z" fill="url(#paint1_linear_2915_8495)"/>
<path d="M32.6921 41.8226H13.8855C11.7577 41.8226 9.8645 40.0546 9.65067 37.8746L7.18381 12.1941C6.97519 10.0141 8.52937 8.24609 10.6572 8.24609H29.4638C31.5917 8.24609 33.4849 10.0141 33.6987 12.1941L36.1708 37.8746C36.3794 40.0546 34.8252 41.8226 32.6974 41.8226H32.6921Z" fill="url(#paint2_linear_2915_8495)"/>
<path d="M35.3727 39.9248H16.5661C14.4383 39.9248 12.4304 38.2559 12.0809 36.2011L7.95559 11.9757C7.60616 9.91565 9.0456 8.25195 11.1735 8.25195H29.9801C32.1079 8.25195 34.1158 9.92087 34.4653 11.9757L38.5906 36.2011C38.94 38.2611 37.5006 39.9248 35.3727 39.9248Z" fill="url(#paint3_linear_2915_8495)"/>
<path d="M7.95021 11.9073L8.72208 16.4655H35.2318L34.486 12.0846C34.1105 9.86807 32.186 8.24609 29.9382 8.24609H11.0377C9.09759 8.24609 7.62164 9.99324 7.94499 11.9073H7.95021Z" fill="url(#paint4_linear_2915_8495)"/>
<path d="M11.7314 8.24609L13.5933 11.5839L14.4486 11.2449L12.7067 8.24609H11.7314Z" fill="url(#paint5_linear_2915_8495)"/>
<path d="M18.9551 8.24609L20.8222 11.5839L21.6723 11.2449L19.9303 8.24609H18.9551Z" fill="url(#paint6_linear_2915_8495)"/>
<path d="M26.418 8.24609L28.2851 11.5839L29.1352 11.2449L27.3932 8.24609H26.418Z" fill="url(#paint7_linear_2915_8495)"/>
<path d="M20.1446 5.13836C18.6165 5.13836 17.3283 6.49435 17.1719 8.24671H18.1576C18.3036 7.03675 19.1485 6.10842 20.1498 6.10842C21.2659 6.10842 22.1682 7.22972 22.1682 8.61179C22.1682 9.61314 21.6884 10.505 20.9687 10.9013C20.7913 11.0004 20.7027 11.209 20.7653 11.402L20.8226 11.5793C20.8904 11.7984 21.1408 11.9027 21.3442 11.7984C22.4185 11.2508 23.1382 10.0043 23.1382 8.60657C23.1382 6.68732 21.7927 5.12793 20.1446 5.12793V5.13836Z" fill="url(#paint8_linear_2915_8495)"/>
<path d="M27.5753 5.13836C26.0472 5.13836 24.759 6.49435 24.6025 8.24671H25.5882C25.7343 7.03675 26.5792 6.10842 27.5805 6.10842C28.6966 6.10842 29.5989 7.22972 29.5989 8.61179C29.5989 9.61314 29.119 10.505 28.3993 10.9013C28.222 11.0004 28.1333 11.209 28.1959 11.402L28.2533 11.5793C28.3211 11.7984 28.5714 11.9027 28.7748 11.7984C29.8492 11.2508 30.5689 10.0043 30.5689 8.60657C30.5689 6.68732 29.2233 5.12793 27.5753 5.12793V5.13836Z" fill="url(#paint9_linear_2915_8495)"/>
<path d="M12.921 5.13836C11.3929 5.13836 10.1047 6.49435 9.94824 8.24671V8.30408C10.2507 8.26236 10.5793 8.24671 10.9339 8.24671C11.08 7.03675 11.9249 6.10842 12.9262 6.10842C14.0423 6.10842 14.9446 7.22972 14.9446 8.61179C14.9446 9.61314 14.4647 10.505 13.745 10.9013C13.5677 11.0004 13.479 11.209 13.5416 11.402L13.599 11.5793C13.6668 11.7984 13.9171 11.9027 14.1205 11.7984C15.1949 11.2508 15.9146 10.0043 15.9146 8.60657C15.9146 6.68732 14.5691 5.12793 12.921 5.12793V5.13836Z" fill="url(#paint10_linear_2915_8495)"/>
<path d="M20.6076 31.88C19.4605 31.88 18.4542 31.491 17.5955 30.7195C16.7369 29.948 16.2002 28.9552 15.9855 27.7477L15.5428 25.2186C15.3348 24.0245 15.5226 23.0383 16.113 22.2602C16.7033 21.4887 17.5687 21.0996 18.7159 21.0996C19.863 21.0996 20.8558 21.4887 21.7145 22.2602C22.5732 23.0383 23.1099 24.0178 23.3178 25.2186L23.7606 27.7477C23.9753 28.9552 23.7807 29.948 23.1904 30.7195C22.6 31.491 21.7346 31.88 20.6009 31.88H20.6076ZM18.7896 29.3241C19.1989 29.7065 19.6886 29.8944 20.2588 29.8944C20.829 29.8944 21.2449 29.7065 21.52 29.3241C21.795 28.9418 21.8688 28.4185 21.7548 27.7477L21.312 25.2186C21.198 24.5544 20.9363 24.0312 20.5271 23.6555C20.1246 23.2798 19.6349 23.092 19.0647 23.092C18.4945 23.092 18.0718 23.2798 17.7968 23.6555C17.5218 24.0312 17.4413 24.5544 17.5553 25.2186L17.998 27.7477C18.1121 28.4185 18.3804 28.9418 18.7896 29.3241Z" fill="white"/>
<path d="M32.5885 29.7331L32.9373 31.7188H25.813L25.6922 31.0278C25.6453 30.7461 25.6251 30.471 25.6386 30.2027C25.652 29.9343 25.6788 29.7063 25.7325 29.505C25.7794 29.3038 25.8666 29.0958 26.0008 28.8811C26.135 28.6665 26.2423 28.492 26.3362 28.3512C26.4301 28.217 26.5777 28.0493 26.7857 27.848C26.9937 27.6535 27.1479 27.5059 27.262 27.412C27.376 27.3181 27.5504 27.1772 27.792 26.9826C28.0335 26.7881 28.2012 26.6539 28.2951 26.5801C29.2611 25.8154 29.6837 25.0976 29.5697 24.4334C29.5026 24.0444 29.3215 23.7156 29.033 23.4607C28.7446 23.2058 28.3823 23.0783 27.953 23.0783C27.4901 23.0783 27.1345 23.2192 26.8863 23.4943C26.6381 23.776 26.5509 24.1249 26.6381 24.5475H24.6055C24.4243 23.5278 24.6256 22.696 25.2025 22.0519C25.7794 21.4079 26.5979 21.0859 27.6444 21.0859C28.5768 21.0859 29.4154 21.3677 30.1667 21.9379C30.9181 22.5081 31.381 23.2997 31.5621 24.306C31.7097 25.1378 31.6493 25.8221 31.3877 26.3588C31.126 26.8954 30.6632 27.4321 30.0057 27.9822C29.9454 28.0292 29.7911 28.1499 29.5361 28.3444C29.2879 28.539 29.0934 28.6866 28.9659 28.7939C28.8385 28.9012 28.6976 29.0421 28.55 29.2233C28.4024 29.4044 28.3085 29.5654 28.275 29.7264H32.6019L32.5885 29.7331Z" fill="white"/>
<path d="M36.2996 42.6002C41.1045 42.6002 44.9996 38.7051 44.9996 33.9002C44.9996 29.0953 41.1045 25.2002 36.2996 25.2002C31.4947 25.2002 27.5996 29.0953 27.5996 33.9002C27.5996 38.7051 31.4947 42.6002 36.2996 42.6002Z" fill="#8C6FD1"/>
<path d="M37.0564 42.6002C41.8613 42.6002 45.7564 38.7051 45.7564 33.9002C45.7564 29.0953 41.8613 25.2002 37.0564 25.2002C32.2516 25.2002 28.3564 29.0953 28.3564 33.9002C28.3564 38.7051 32.2516 42.6002 37.0564 42.6002Z" fill="url(#paint11_linear_2915_8495)"/>
<path d="M35.1931 37.2179L31.4828 34.0058C31.3495 33.8899 31.3495 33.7109 31.4828 33.595L32.5014 32.7209C32.6347 32.6051 32.8409 32.6051 32.9742 32.7209L35.4356 34.8483L40.3827 30.583C40.5161 30.4671 40.7222 30.4671 40.8556 30.583L41.8741 31.4571C42.0075 31.573 42.0075 31.752 41.8741 31.8678L35.6781 37.2179C35.5448 37.3338 35.3386 37.3338 35.2053 37.2179H35.1931Z" fill="#8C6FD1"/>
<path d="M34.921 37.2179L31.4757 34.0058C31.3519 33.8899 31.3519 33.7109 31.4757 33.595L32.4215 32.7209C32.5453 32.6051 32.7367 32.6051 32.8606 32.7209L35.1462 34.8483L39.7398 30.583C39.8637 30.4671 40.0551 30.4671 40.1789 30.583L41.1247 31.4571C41.2486 31.573 41.2486 31.752 41.1247 31.8678L35.3713 37.2179C35.2475 37.3338 35.0561 37.3338 34.9322 37.2179H34.921Z" fill="white"/>
</g>
<defs>
<radialGradient id="paint0_radial_2915_8495" cx="0" cy="0" r="1" gradientUnits="userSpaceOnUse" gradientTransform="translate(23.4039 43.5014) scale(18.9809 1.51758)">
<stop stop-opacity="0.7"/>
<stop offset="1" stop-color="#414042" stop-opacity="0"/>
</radialGradient>
<linearGradient id="paint1_linear_2915_8495" x1="5.52019" y1="43.648" x2="31.2789" y2="10.7495" gradientUnits="userSpaceOnUse">
<stop stop-color="#1E1E1E"/>
<stop offset="1" stop-color="#A2A3A4"/>
</linearGradient>
<linearGradient id="paint2_linear_2915_8495" x1="2.77161" y1="44.9518" x2="38.8828" y2="6.90053" gradientUnits="userSpaceOnUse">
<stop stop-color="#606060"/>
<stop offset="1" stop-color="#E4E5E6"/>
</linearGradient>
<linearGradient id="paint3_linear_2915_8495" x1="20.1543" y1="7.58439" x2="20.1543" y2="48.3685" gradientUnits="userSpaceOnUse">
<stop stop-color="#CFD1D2"/>
<stop offset="1" stop-color="#EFF0F0"/>
</linearGradient>
<linearGradient id="paint4_linear_2915_8495" x1="21.2181" y1="18.7707" x2="22.2455" y2="4.37108" gradientUnits="userSpaceOnUse">
<stop stop-color="#E5E5E5"/>
<stop offset="1" stop-color="white"/>
</linearGradient>
<linearGradient id="paint5_linear_2915_8495" x1="13.4786" y1="11.5996" x2="12.9049" y2="8.86151" gradientUnits="userSpaceOnUse">
<stop stop-color="#606060" stop-opacity="0.5"/>
<stop offset="1" stop-color="#E4E5E6" stop-opacity="0"/>
</linearGradient>
<linearGradient id="paint6_linear_2915_8495" x1="20.7022" y1="11.5996" x2="20.1285" y2="8.86151" gradientUnits="userSpaceOnUse">
<stop stop-color="#606060" stop-opacity="0.5"/>
<stop offset="1" stop-color="#E4E5E6" stop-opacity="0"/>
</linearGradient>
<linearGradient id="paint7_linear_2915_8495" x1="28.1651" y1="11.5996" x2="27.5914" y2="8.86151" gradientUnits="userSpaceOnUse">
<stop stop-color="#606060" stop-opacity="0.5"/>
<stop offset="1" stop-color="#E4E5E6" stop-opacity="0"/>
</linearGradient>
<linearGradient id="paint8_linear_2915_8495" x1="16.9476" y1="12.4764" x2="23.1591" y2="4.98711" gradientUnits="userSpaceOnUse">
<stop stop-color="#1E1E1E"/>
<stop offset="1" stop-color="#A2A3A4"/>
</linearGradient>
<linearGradient id="paint9_linear_2915_8495" x1="25.0719" y1="11.5376" x2="30.0422" y2="5.74856" gradientUnits="userSpaceOnUse">
<stop stop-color="#1E1E1E"/>
<stop offset="1" stop-color="#A2A3A4"/>
</linearGradient>
<linearGradient id="paint10_linear_2915_8495" x1="11.6432" y1="9.89477" x2="14.6421" y2="6.90115" gradientUnits="userSpaceOnUse">
<stop stop-color="#1E1E1E"/>
<stop offset="1" stop-color="#A2A3A4"/>
</linearGradient>
<linearGradient id="paint11_linear_2915_8495" x1="37.0564" y1="25.2002" x2="37.0564" y2="42.6002" gradientUnits="userSpaceOnUse">
<stop stop-color="#C09FFF"/>
<stop offset="1" stop-color="#B191ED"/>
</linearGradient>
<clipPath id="clip0_2915_8495">
<rect width="40.2" height="38.0617" fill="white" transform="translate(6 5.1377)"/>
</clipPath>
</defs>
</svg>
