<svg width="24" height="24" viewBox="0 0 24 24" fill="none" xmlns="http://www.w3.org/2000/svg">
<path d="M3.8 18.08C2.75 18.08 2 17.34 2 16.2V12.93C2 12.25 2.2 11.59 2.57 11.02L3.77 9.15C4.23 8.44 5.02 8 5.87 8H11.11C11.44 8 11.77 8.03 12.09 8.09C13.53 8.32 14.85 9.08 15.79 10.23L17.04 11.76L21.1 12.78C21.65 12.92 22.05 13.42 22.05 13.99V16.2C22.05 17.32 21.34 18.08 20.31 18.08" stroke="#141414" stroke-width="1.5" stroke-miterlimit="10"/>
<path d="M17.6597 20.2706C18.8697 20.2706 19.8497 19.2906 19.8497 18.0806C19.8497 16.8706 18.8697 15.8906 17.6597 15.8906C16.4497 15.8906 15.4697 16.8706 15.4697 18.0806C15.4697 19.2906 16.4497 20.2706 17.6597 20.2706Z" stroke="#141414" stroke-width="1.5" stroke-linejoin="round"/>
<path d="M6.01031 20.2706C7.22031 20.2706 8.20031 19.2906 8.20031 18.0806C8.20031 16.8706 7.22031 15.8906 6.01031 15.8906C4.80031 15.8906 3.82031 16.8706 3.82031 18.0806C3.82031 19.2906 4.80031 20.2706 6.01031 20.2706Z" stroke="#141414" stroke-width="1.5" stroke-linejoin="round"/>
<path d="M2.28027 11.7598H16.4003" stroke="#141414" stroke-width="1.5" stroke-miterlimit="10" stroke-linecap="round"/>
<path d="M8.74023 18.0801H15.3202" stroke="#141414" stroke-width="1.5" stroke-miterlimit="10"/>
<path d="M9.90039 6.29297V17.963" stroke="#141414" stroke-width="1.5" stroke-miterlimit="10"/>
<path d="M5 6.5C5 5.672 5.74667 5 6.66667 5C9.13238 5 10 8 10 8H6.66667C5.74667 8 5 7.328 5 6.5Z" stroke="#141414" stroke-width="1.5" stroke-linecap="round" stroke-linejoin="round"/>
<path d="M13.3333 8H10C10 8 10.8676 5 13.3333 5C14.2533 5 15 5.672 15 6.5C15 7.328 14.2533 8 13.3333 8Z" stroke="#141414" stroke-width="1.5" stroke-linecap="round" stroke-linejoin="round"/>
</svg>
